<svg width="32" height="32" viewBox="0 0 32 32" fill="none" xmlns="http://www.w3.org/2000/svg">
<path d="M9.98811 18.6686C4.00117 15.4686 4.00117 13.8686 4.00117 13.3353C4.00117 12.8019 4.00117 11.2019 9.98811 8.00191M9.98811 18.6686C4.00117 21.8686 4 22.9353 4 24.002M9.98811 18.6686C15.9738 15.4693 15.9738 13.8693 15.9738 13.3356C15.9738 12.8019 15.9738 11.2013 9.98811 8.00191M9.98811 8.00191C15.975 4.80191 15.975 3.73525 15.975 2.66858M9.98811 8.00191L7.07708 6.32765C4.00076 4.37723 4 3.52291 4 2.66858" stroke="#2B848F" stroke-width="2" stroke-linecap="round" stroke-linejoin="round"/>
<path d="M19.2157 16.0006V18.6393M14.5664 20.6678H17.3023M25.2637 20.6678H27.9997M25.2637 24.6321H27.9997M14.5664 24.6321H17.3023M19.2157 26.6929V29.3315M23.2496 26.6929V29.3315M23.2353 16.0006V18.6393M18.6356 26.6239H23.9304C24.6668 26.6239 25.2637 26.027 25.2637 25.2906V19.9726C25.2637 19.2362 24.6668 18.6393 23.9304 18.6393H18.6356C17.8993 18.6393 17.3023 19.2362 17.3023 19.9726V25.2906C17.3023 26.027 17.8993 26.6239 18.6356 26.6239Z" stroke="#2B848F" stroke-width="2" stroke-linecap="round" stroke-linejoin="round"/>
</svg>
