<svg width="32" height="32" viewBox="0 0 32 32" fill="none" xmlns="http://www.w3.org/2000/svg">
<g clip-path="url(#clip0_993_19686)">
<path d="M6.04792 10.9632C6.42467 10.492 6.6803 9.8593 6.61292 9.21274C6.06142 9.24018 5.38842 9.57661 4.9988 10.0482C4.64892 10.452 4.3393 11.1112 4.42005 11.7307C5.03905 11.7844 5.65761 11.4212 6.04792 10.9632Z" fill="black"/>
<path d="M6.60584 11.8516C5.70677 11.798 4.94234 12.3619 4.51296 12.3619C4.0834 12.3619 3.4259 11.8786 2.71477 11.8916C1.78921 11.9052 0.9304 12.4285 0.460712 13.2609C-0.50535 14.9259 0.205775 17.3958 1.14521 18.7519C1.6014 19.4227 2.15127 20.1615 2.87571 20.1349C3.56021 20.108 3.82852 19.6917 4.66052 19.6917C5.49196 19.6917 5.73365 20.1349 6.45821 20.1215C7.20965 20.108 7.6794 19.4502 8.13559 18.7787C8.65896 18.0139 8.87321 17.2754 8.88665 17.2349C8.87315 17.2214 7.43771 16.6707 7.4244 15.0195C7.41084 13.637 8.5514 12.9793 8.60509 12.9385C7.96109 11.986 6.95471 11.8786 6.60584 11.8516Z" fill="black"/>
<path d="M14.4343 9.9805C16.3884 9.9805 17.7491 11.3275 17.7491 13.2886C17.7491 15.2567 16.3603 16.6107 14.3853 16.6107H12.2217V20.0514H10.6585V9.9805H14.4343ZM12.2216 15.2986H14.0153C15.3763 15.2986 16.1508 14.5659 16.1508 13.2956C16.1508 12.0255 15.3763 11.2996 14.0223 11.2996H12.2216V15.2986Z" fill="black"/>
<path d="M18.1575 17.9648C18.1575 16.6805 19.1416 15.8919 20.8865 15.7942L22.8964 15.6756V15.1103C22.8964 14.2938 22.345 13.8052 21.424 13.8052C20.5513 13.8052 20.007 14.2239 19.8745 14.88H18.4508C18.5345 13.5539 19.665 12.5768 21.4797 12.5768C23.2593 12.5768 24.3969 13.519 24.3969 14.9916V20.0514H22.9522V18.8441H22.9174C22.4917 19.6607 21.5634 20.1771 20.6003 20.1771C19.1626 20.1771 18.1575 19.2837 18.1575 17.9648ZM22.8963 17.3018V16.7225L21.0887 16.8341C20.1884 16.897 19.679 17.2948 19.679 17.9229C19.679 18.5649 20.2093 18.9837 21.019 18.9837C22.0728 18.9836 22.8963 18.2578 22.8963 17.3018Z" fill="black"/>
<path d="M25.7608 22.7524V21.5311C25.8723 21.5589 26.1235 21.5589 26.2492 21.5589C26.947 21.5589 27.324 21.2659 27.5542 20.5121C27.5542 20.4981 27.6869 20.0654 27.6869 20.0584L25.0349 12.7094H26.6678L28.5245 18.6836H28.5523L30.409 12.7094H32L29.25 20.4353C28.6222 22.2151 27.8963 22.7873 26.3748 22.7873C26.2492 22.7873 25.8722 22.7733 25.7608 22.7524Z" fill="black"/>
</g>
<defs>
<clipPath id="clip0_993_19686">
<rect width="32" height="32" fill="white"/>
</clipPath>
</defs>
</svg>
