<svg width="32" height="32" viewBox="0 0 32 32" fill="none" xmlns="http://www.w3.org/2000/svg">
<path d="M16.007 14.6666H16.019M10.6797 14.6666H10.6916" stroke="#2B848F" stroke-width="2" stroke-linecap="round" stroke-linejoin="round"/>
<path d="M15.9993 4C14.0272 4 12.1262 4.0412 10.3409 4.11759C7.08695 4.2568 5.45995 4.32641 4.17278 5.62327C2.8856 6.92012 2.82978 8.50244 2.71814 11.6671C2.68396 12.6357 2.66602 13.6389 2.66602 14.6667C2.66602 15.6944 2.68396 16.6976 2.71814 17.6663C2.82978 20.8309 2.8856 22.4132 4.17278 23.71C5.45995 25.0069 7.08694 25.0765 10.3409 25.2157C10.4489 25.2204 10.5572 25.2248 10.666 25.2292V28.3601C10.666 28.8976 11.1017 29.3333 11.6392 29.3333C11.8716 29.3333 12.0963 29.2501 12.2727 29.0989L15.1787 26.6071C15.9093 25.9807 16.2745 25.6675 16.7087 25.5021C17.1428 25.3368 17.6369 25.3273 18.6251 25.3087C19.6657 25.2889 20.6791 25.2576 21.6576 25.2157C24.9117 25.0765 26.5388 25.0069 27.8259 23.7101C29.1131 22.4132 29.1689 20.8309 29.2805 17.6663C29.3073 16.9081 29.3241 16.1289 29.3301 15.3333" stroke="#2B848F" stroke-width="2" stroke-linecap="round" stroke-linejoin="round"/>
<path d="M28.1453 3.46415C27.1641 2.962 25.9635 2.66663 24.6667 2.66663C23.3699 2.66663 22.1692 2.962 21.188 3.46415C20.7068 3.71039 20.4663 3.83352 20.2331 4.22064C20 4.60777 20 4.98261 20 5.73229V7.59305C20 10.6242 22.3553 12.3095 23.7193 13.0313C24.0997 13.2326 24.29 13.3333 24.6667 13.3333C25.0433 13.3333 25.2336 13.2326 25.614 13.0313C26.978 12.3095 29.3333 10.6242 29.3333 7.59305V5.73231C29.3333 4.98261 29.3333 4.60777 29.1003 4.22064C28.8671 3.83352 28.6265 3.71039 28.1453 3.46415Z" stroke="#2B848F" stroke-width="2" stroke-linecap="round" stroke-linejoin="round"/>
</svg>
