<svg width="20" height="20" viewBox="0 0 20 20" fill="none" xmlns="http://www.w3.org/2000/svg">
<path d="M10.3352 6.91495L12.7684 6.10386C13.5069 5.85768 13.8762 5.73459 14.0712 5.92951C14.2661 6.12444 14.143 6.49371 13.8967 7.23224L13.0857 9.66548C12.6662 10.924 12.4564 11.5532 12.0052 12.0045C11.5539 12.4557 10.9247 12.6655 9.66615 13.085L7.23291 13.8961C6.49438 14.1423 6.12511 14.2654 5.93019 14.0705C5.73526 13.8756 5.85835 13.5062 6.10453 12.7677L6.91562 10.3345C7.33512 9.07598 7.54487 8.44673 7.99613 7.99546C8.4474 7.5442 9.07665 7.33445 10.3352 6.91495Z" stroke="#242424" stroke-width="1.5" stroke-linecap="round" stroke-linejoin="round"/>
<path d="M10.0005 10L9.99414 10.0064" stroke="#242424" stroke-width="2" stroke-linecap="round" stroke-linejoin="round"/>
<path d="M2.08398 9.99998C2.08398 6.26803 2.08398 4.40205 3.24335 3.24268C4.40273 2.08331 6.2687 2.08331 10.0007 2.08331C13.7326 2.08331 15.5986 2.08331 16.758 3.24268C17.9173 4.40205 17.9173 6.26803 17.9173 9.99998C17.9173 13.7319 17.9173 15.5979 16.758 16.7573C15.5986 17.9166 13.7326 17.9166 10.0007 17.9166C6.2687 17.9166 4.40273 17.9166 3.24335 16.7573C2.08398 15.5979 2.08398 13.7319 2.08398 9.99998Z" stroke="#242424" stroke-width="1.5" stroke-linecap="round" stroke-linejoin="round"/>
</svg>
