<svg width="32" height="32" viewBox="0 0 32 32" fill="none" xmlns="http://www.w3.org/2000/svg">
<path d="M14.9354 15.8287V19.5304H13.7606V10.3893H16.8749C17.6642 10.3893 18.3372 10.6524 18.8879 11.1786C19.4509 11.7048 19.7323 12.3473 19.7323 13.1059C19.7323 13.883 19.4509 14.5254 18.8879 15.0455C18.3434 15.5656 17.6704 15.8226 16.8749 15.8226H14.9354V15.8287ZM14.9354 11.5151V14.7029H16.8994C17.3644 14.7029 17.7561 14.5438 18.0619 14.2318C18.374 13.9197 18.5331 13.5404 18.5331 13.1121C18.5331 12.6899 18.374 12.3166 18.0619 12.0046C17.756 11.6803 17.3706 11.5212 16.8994 11.5212H14.9354V11.5151Z" fill="#383E41"/>
<path d="M22.8038 13.0692C23.6726 13.0692 24.358 13.3017 24.8596 13.7667C25.3614 14.2317 25.6122 14.8681 25.6122 15.6757V19.5304H24.4925V18.6616H24.4436C23.9602 19.3775 23.3116 19.7324 22.504 19.7324C21.8126 19.7324 21.2375 19.5304 20.7725 19.1205C20.3075 18.7106 20.075 18.2027 20.075 17.5909C20.075 16.9423 20.3197 16.4284 20.8092 16.049C21.2987 15.6636 21.9534 15.4739 22.7671 15.4739C23.4646 15.4739 24.0398 15.6024 24.4865 15.8593V15.5901C24.4865 15.1802 24.3274 14.8376 24.0031 14.55C23.6788 14.2624 23.2995 14.1217 22.865 14.1217C22.2103 14.1217 21.6903 14.397 21.3109 14.9538L20.2768 14.3052C20.8459 13.4792 21.6903 13.0692 22.8038 13.0692ZM21.2865 17.6092C21.2865 17.9151 21.415 18.1721 21.678 18.374C21.935 18.5759 22.241 18.6799 22.5897 18.6799C23.0853 18.6799 23.5258 18.4964 23.9113 18.1292C24.2968 17.7621 24.4926 17.3338 24.4926 16.8382C24.1255 16.5507 23.6176 16.4038 22.963 16.4038C22.4857 16.4038 22.088 16.5201 21.7698 16.7464C21.4455 16.9851 21.2865 17.2727 21.2865 17.6092Z" fill="#383E41"/>
<path d="M32 13.2711L28.0841 22.2776H26.8726L28.3288 19.1266L25.7468 13.2711H27.0256L28.8856 17.7621H28.9101L30.7212 13.2711H32Z" fill="#383E41"/>
<path d="M10.1648 13.9803H5.2406V15.9994L8.07654 16C7.96154 16.6718 7.59135 17.2445 7.02416 17.6263V17.6267C7.02435 17.6266 7.0246 17.6264 7.02479 17.6263L6.97373 18.8331L8.71291 18.9357C8.71266 18.9359 8.71241 18.9361 8.71223 18.9363C9.69791 18.0241 10.2627 16.6755 10.2627 15.0823C10.2627 14.6992 10.2284 14.3327 10.1648 13.9803Z" fill="#0085F7"/>
<path d="M7.02474 17.6263C7.02455 17.6264 7.0243 17.6266 7.02411 17.6267C6.5543 17.9434 5.94936 18.1286 5.2418 18.1286C3.8743 18.1286 2.71424 17.2072 2.2988 15.9651H2.29861C2.29868 15.9653 2.29874 15.9656 2.2988 15.9657L0.846864 15.7358L0.557739 17.3165C1.42055 19.0282 3.19355 20.2028 5.24186 20.2028C6.6573 20.2028 7.84649 19.7374 8.71224 18.9362C8.71249 18.9361 8.71274 18.9359 8.71293 18.9356L7.02474 17.6263Z" fill="#00A94B"/>
<path d="M2.13475 14.9629C2.13475 14.6141 2.19287 14.277 2.29875 13.9601L1.84537 12.6091H0.557375C0.200688 13.317 0 14.1161 0 14.9629C0 15.8097 0.201313 16.6088 0.557375 17.3167L0.557625 17.3165L2.29875 15.9657C2.29869 15.9655 2.29862 15.9653 2.29856 15.9651C2.19281 15.6484 2.13475 15.3114 2.13475 14.9629Z" fill="#FFBB00"/>
<path d="M5.24175 9.72238C3.19387 9.72238 1.42012 10.8971 0.557373 12.6091L2.29869 13.9601C2.71412 12.7181 3.87419 11.7966 5.24169 11.7966C6.01444 11.7966 6.7065 12.0628 7.25287 12.5829L8.74887 11.0881C7.84031 10.2418 6.65575 9.72238 5.24175 9.72238Z" fill="#FF4031"/>
</svg>
