<svg width="40" height="40" viewBox="0 0 40 40" fill="none" xmlns="http://www.w3.org/2000/svg">
<path d="M25 20C25 18.159 26.4923 16.6667 28.3333 16.6667C32.0152 16.6667 35 19.6515 35 23.3333C35 27.0152 32.0152 30 28.3333 30C26.4923 30 25 28.5077 25 26.6667V20Z" stroke="#2B848F" stroke-width="2" stroke-linecap="round" stroke-linejoin="round"/>
<path d="M15 20C15 18.159 13.5076 16.6667 11.6667 16.6667C7.98477 16.6667 5 19.6515 5 23.3333C5 27.0152 7.98477 30 11.6667 30C13.5076 30 15 28.5077 15 26.6667V20Z" stroke="#2B848F" stroke-width="2" stroke-linecap="round" stroke-linejoin="round"/>
<path d="M5 23.3333V18.3333C5 10.0491 11.7157 3.33333 20 3.33333C28.2843 3.33333 35 10.0491 35 18.3333V26.4103C35 29.7575 35 31.431 34.4127 32.7362C33.7442 34.2215 32.5548 35.4108 31.0695 36.0793C29.7643 36.6667 28.0908 36.6667 24.7437 36.6667H20" stroke="#2B848F" stroke-width="2" stroke-linecap="round" stroke-linejoin="round"/>
</svg>
