<svg width="40" height="40" viewBox="0 0 40 40" fill="none" xmlns="http://www.w3.org/2000/svg">
<path d="M10.7269 13.333C10.2581 14.7367 10 16.271 10 17.8785C10 24.5728 14.4771 29.9997 20 29.9997C25.5228 29.9997 30 24.5728 30 17.8785C30 16.271 29.7418 14.7367 29.2732 13.333" stroke="#2B848F" stroke-width="2.5" stroke-linecap="round" stroke-linejoin="round"/>
<path d="M24.1673 35C24.1673 35 23.0307 30 20.0007 30C16.9707 30 15.834 35 15.834 35" stroke="#2B848F" stroke-width="2.5" stroke-linecap="round" stroke-linejoin="round"/>
<path d="M30.8668 8.71612C31.3533 11.4939 29.1671 13.3333 29.1671 13.3333C29.1671 13.3333 26.4946 12.395 26.0081 9.61722C25.5216 6.83943 27.7078 5 27.7078 5C27.7078 5 30.3805 5.93835 30.8668 8.71612Z" stroke="#2B848F" stroke-width="2.5" stroke-linecap="round" stroke-linejoin="round"/>
<path d="M35.1573 20.2322C33.0216 22.3435 30.13 21.5005 30.13 21.5005C30.13 21.5005 29.3738 18.546 31.5095 16.4346C33.645 14.3231 36.5368 15.1662 36.5368 15.1662C36.5368 15.1662 37.293 18.1207 35.1573 20.2322Z" stroke="#2B848F" stroke-width="2.5" stroke-linecap="round" stroke-linejoin="round"/>
<path d="M30.3892 30.3158C27.8892 29.3565 27.5 26.6665 27.5 26.6665C27.5 26.6665 29.6108 24.9358 32.1108 25.8952C34.6108 26.8545 35 29.5445 35 29.5445C35 29.5445 32.8892 31.2752 30.3892 30.3158Z" stroke="#2B848F" stroke-width="2.5" stroke-linecap="round" stroke-linejoin="round"/>
<path d="M9.61085 30.3158C12.1108 29.3565 12.5 26.6665 12.5 26.6665C12.5 26.6665 10.3891 24.9358 7.88915 25.8952C5.38915 26.8545 5 29.5445 5 29.5445C5 29.5445 7.11085 31.2752 9.61085 30.3158Z" stroke="#2B848F" stroke-width="2.5" stroke-linecap="round" stroke-linejoin="round"/>
<path d="M4.84339 20.2322C6.97899 22.3435 9.8707 21.5005 9.8707 21.5005C9.8707 21.5005 10.6268 18.546 8.49124 16.4346C6.35565 14.3231 3.46394 15.1662 3.46394 15.1662C3.46394 15.1662 2.7078 18.1207 4.84339 20.2322Z" stroke="#2B848F" stroke-width="2.5" stroke-linecap="round" stroke-linejoin="round"/>
<path d="M9.13312 8.71612C8.64665 11.4939 10.8328 13.3333 10.8328 13.3333C10.8328 13.3333 13.5054 12.395 13.9919 9.61722C14.4784 6.83943 12.2922 5 12.2922 5C12.2922 5 9.61959 5.93835 9.13312 8.71612Z" stroke="#2B848F" stroke-width="2.5" stroke-linecap="round" stroke-linejoin="round"/>
</svg>
