<svg width="32" height="32" viewBox="0 0 32 32" fill="none" xmlns="http://www.w3.org/2000/svg">
<path d="M8.58152 10.6666C8.20651 11.7896 8 13.0171 8 14.303C8 19.6585 11.5817 24 16 24C20.4183 24 24 19.6585 24 14.303C24 13.0171 23.7935 11.7896 23.4185 10.6666" stroke="#2B848F" stroke-width="2" stroke-linecap="round" stroke-linejoin="round"/>
<path d="M19.3327 28C19.3327 28 18.4233 24 15.9993 24C13.5753 24 12.666 28 12.666 28" stroke="#2B848F" stroke-width="2" stroke-linecap="round" stroke-linejoin="round"/>
<path d="M24.6934 6.97289C25.0826 9.19512 23.3337 10.6667 23.3337 10.6667C23.3337 10.6667 21.1957 9.916 20.8065 7.69377C20.4173 5.47155 22.1662 4 22.1662 4C22.1662 4 24.3044 4.75068 24.6934 6.97289Z" stroke="#2B848F" stroke-width="2" stroke-linecap="round" stroke-linejoin="round"/>
<path d="M28.1258 16.1857C26.4173 17.8748 24.104 17.2004 24.104 17.2004C24.104 17.2004 23.499 14.8368 25.2076 13.1477C26.916 11.4585 29.2294 12.133 29.2294 12.133C29.2294 12.133 29.8344 14.4965 28.1258 16.1857Z" stroke="#2B848F" stroke-width="2" stroke-linecap="round" stroke-linejoin="round"/>
<path d="M24.3113 24.2528C22.3113 23.4853 22 21.3333 22 21.3333C22 21.3333 23.6887 19.9488 25.6887 20.7162C27.6887 21.4837 28 23.6357 28 23.6357C28 23.6357 26.3113 25.0202 24.3113 24.2528Z" stroke="#2B848F" stroke-width="2" stroke-linecap="round" stroke-linejoin="round"/>
<path d="M7.68868 24.2527C9.68868 23.4852 10 21.3332 10 21.3332C10 21.3332 8.31132 19.9487 6.31132 20.7161C4.31132 21.4836 4 23.6356 4 23.6356C4 23.6356 5.68868 25.0201 7.68868 24.2527Z" stroke="#2B848F" stroke-width="2" stroke-linecap="round" stroke-linejoin="round"/>
<path d="M3.87354 16.1857C5.58202 17.8748 7.89539 17.2004 7.89539 17.2004C7.89539 17.2004 8.5003 14.8368 6.79182 13.1477C5.08335 11.4585 2.76998 12.133 2.76998 12.133C2.76998 12.133 2.16507 14.4965 3.87354 16.1857Z" stroke="#2B848F" stroke-width="2" stroke-linecap="round" stroke-linejoin="round"/>
<path d="M7.3065 6.97289C6.91732 9.19512 8.66624 10.6667 8.66624 10.6667C8.66624 10.6667 10.8043 9.916 11.1935 7.69377C11.5827 5.47155 9.83376 4 9.83376 4C9.83376 4 7.69567 4.75068 7.3065 6.97289Z" stroke="#2B848F" stroke-width="2" stroke-linecap="round" stroke-linejoin="round"/>
</svg>
