<svg width="32" height="32" viewBox="0 0 32 32" fill="none" xmlns="http://www.w3.org/2000/svg">
<path d="M26.0005 13.3333C26.0005 8.30497 26.0005 5.79083 24.4385 4.22872C22.8764 2.66663 20.3623 2.66663 15.3339 2.66663H14.0007C8.97242 2.66663 6.45829 2.66663 4.8962 4.22871C3.33409 5.79079 3.33408 8.30492 3.33404 13.3332L3.33398 18.6665C3.33394 23.6949 3.33392 26.209 4.89602 27.7712C6.45812 29.3333 8.97229 29.3333 14.0007 29.3333H16.0007" stroke="#2B848F" stroke-width="2" stroke-linecap="round" stroke-linejoin="round"/>
<path d="M9.33398 9.33337H20.0007M9.33398 16H18.0007" stroke="#2B848F" stroke-width="2" stroke-linecap="round" stroke-linejoin="round"/>
<path d="M21.149 29.3334H26.8522C28.0324 29.3334 29.0304 28.5316 28.5392 27.6707C27.752 26.2915 26.0158 25.3334 24.0006 25.3334C21.9854 25.3334 20.2493 26.2915 19.4621 27.6707C18.9709 28.5316 19.9689 29.3334 21.149 29.3334Z" stroke="#2B848F" stroke-width="2" stroke-linecap="round" stroke-linejoin="round"/>
<path d="M23.9965 22C25.2858 22 26.3309 20.9554 26.3309 19.6667C26.3309 18.378 25.2858 17.3334 23.9965 17.3334C22.7073 17.3334 21.6621 18.378 21.6621 19.6667C21.6621 20.9554 22.7073 22 23.9965 22Z" stroke="#2B848F" stroke-width="2" stroke-linecap="round" stroke-linejoin="round"/>
</svg>
