<svg width="32" height="32" viewBox="0 0 32 32" fill="none" xmlns="http://www.w3.org/2000/svg">
<path d="M2.6665 8L11.8839 13.2226C15.282 15.148 16.7177 15.148 20.1158 13.2226L29.3332 8" stroke="#2B848F" stroke-width="2" stroke-linecap="round" stroke-linejoin="round"/>
<path d="M2.68753 17.9675C2.77469 22.0549 2.81828 24.0985 4.32645 25.6125C5.83461 27.1264 7.93361 27.1791 12.1316 27.2845C14.7189 27.3496 17.2808 27.3496 19.8681 27.2845C24.0661 27.1791 26.165 27.1264 27.6733 25.6125C29.1814 24.0985 29.225 22.0549 29.3121 17.9675C29.3402 16.6532 29.3402 15.3468 29.3121 14.0325C29.225 9.94515 29.1814 7.90146 27.6733 6.38755C26.165 4.87365 24.0661 4.82091 19.8681 4.71543C17.2808 4.65042 14.7189 4.65042 12.1316 4.71542C7.93361 4.82089 5.83461 4.87362 4.32644 6.38754C2.81826 7.90145 2.77469 9.94514 2.68752 14.0325C2.65949 15.3468 2.6595 16.6532 2.68753 17.9675Z" stroke="#2B848F" stroke-width="2" stroke-linecap="round" stroke-linejoin="round"/>
</svg>
