<svg width="38" height="24" viewBox="0 0 38 24" fill="none" xmlns="http://www.w3.org/2000/svg">
<g clip-path="url(#clip0_993_19696)">
<path d="M11.875 24C18.4334 24 23.75 18.6274 23.75 12C23.75 5.37258 18.4334 0 11.875 0C5.31662 0 0 5.37258 0 12C0 18.6274 5.31662 24 11.875 24Z" fill="#F93232"/>
<path d="M26.125 0C23.4579 0 21.0045 0.9 19.0238 2.4H19V2.4168C18.5297 2.7744 18.0975 3.1776 17.6854 3.6H20.3146C20.6803 3.9756 21.0176 4.3776 21.3299 4.8H16.6606C16.3732 5.1828 16.1096 5.5824 15.8686 6H22.1196C22.3428 6.3888 22.553 6.7848 22.7347 7.2H15.2641C15.0943 7.59 14.9447 7.9896 14.8164 8.4H23.1812C23.3047 8.7912 23.4021 9.1932 23.4876 9.6H14.5065C14.4269 9.9936 14.3604 10.392 14.3201 10.8H23.6788C23.7251 11.1936 23.75 11.5932 23.75 12H14.25C14.25 12.4068 14.2821 12.804 14.3213 13.2H23.6811C23.636 13.6068 23.5707 14.0064 23.4888 14.4H14.5077C14.5896 14.8092 14.6953 15.2076 14.8176 15.6H23.1824C23.0541 16.0104 22.9045 16.41 22.7347 16.8H15.2641C15.4434 17.2128 15.6453 17.6136 15.8686 18H22.1196C21.8797 18.4176 21.6125 18.8172 21.3251 19.2H16.6606C16.9765 19.6224 17.3173 20.0244 17.6843 20.4H20.3146C19.9013 20.8236 19.4703 21.2256 19 21.5832C20.9855 23.094 23.4472 24 26.125 24C32.6836 24 38 18.6264 38 12C38 5.3736 32.6836 0 26.125 0Z" fill="#FED049"/>
</g>
<defs>
<clipPath id="clip0_993_19696">
<rect width="38" height="24" fill="white"/>
</clipPath>
</defs>
</svg>
