<svg width="19" height="19" viewBox="0 0 19 19" fill="none" xmlns="http://www.w3.org/2000/svg">
<path d="M14.7754 3.52539L18.5742 0.107422C18.6589 0.0358073 18.7402 0.0390625 18.8184 0.117188C18.8965 0.195312 18.8997 0.273438 18.8281 0.351562L15.4102 4.15039L15.625 4.36523C15.7617 4.50195 15.8301 4.66797 15.8301 4.86328C15.8301 5.05859 15.7617 5.22461 15.625 5.36133L15.166 5.81055L16.0547 6.69922C16.3281 6.97266 16.4648 7.30469 16.4648 7.69531C16.4648 8.08594 16.3281 8.41797 16.0547 8.69141L7.64648 17.0898L7.85156 17.2949C7.98828 17.4316 8.05664 17.5977 8.05664 17.793C8.05664 17.9883 7.98828 18.1543 7.85156 18.291L7.35352 18.7891C7.2168 18.9258 7.05078 18.9941 6.85547 18.9941C6.66016 18.9941 6.49414 18.9258 6.35742 18.7891L4.25781 16.6895L3.07617 17.8711L3.16406 17.9688C3.26823 18.0664 3.32031 18.1868 3.32031 18.3301C3.32031 18.4798 3.26823 18.6068 3.16406 18.7109C3.0599 18.8151 2.9362 18.8672 2.79297 18.8672C2.64974 18.8672 2.52604 18.8151 2.42188 18.7109L0.185547 16.4746C0.0813802 16.3704 0.0292969 16.2467 0.0292969 16.1035C0.0292969 15.9538 0.0813802 15.8268 0.185547 15.7227C0.283203 15.625 0.403646 15.5762 0.546875 15.5762C0.696615 15.5762 0.823568 15.625 0.927734 15.7227L1.05469 15.8496L2.23633 14.668L0.205078 12.6367C0.0683594 12.5 0 12.334 0 12.1387C0 11.9434 0.0683594 11.7773 0.205078 11.6406L0.703125 11.1426C0.839844 11.0059 1.00586 10.9375 1.20117 10.9375C1.39648 10.9375 1.5625 11.0059 1.69922 11.1426L1.83594 11.2793L10.2344 2.87109C10.5143 2.59766 10.8464 2.46094 11.2305 2.46094C11.6211 2.46094 11.9531 2.59766 12.2266 2.87109L13.1836 3.82812L13.6328 3.36914C13.7695 3.23242 13.9355 3.16406 14.1309 3.16406C14.3262 3.16406 14.4922 3.23242 14.6289 3.36914L14.7754 3.52539ZM2.57812 17.373L3.75977 16.1914L2.73438 15.166L1.55273 16.3477L2.57812 17.373ZM15.0586 7.69531L11.2305 3.86719L10.293 4.81445L10.9082 5.42969C11.0124 5.53385 11.0645 5.65755 11.0645 5.80078C11.0645 5.94401 11.0124 6.06771 10.9082 6.17188C10.804 6.27604 10.6771 6.32812 10.5273 6.32812C10.3841 6.32812 10.2604 6.27604 10.1562 6.17188L9.54102 5.55664L8.86719 6.24023L9.45312 6.83594C9.55729 6.9401 9.60938 7.06706 9.60938 7.2168C9.60938 7.36003 9.55729 7.48047 9.45312 7.57812C9.34896 7.68229 9.22526 7.73438 9.08203 7.73438C8.9388 7.73438 8.8151 7.68229 8.71094 7.57812L8.11523 6.99219L7.48047 7.62695L8.0957 8.24219C8.19336 8.34635 8.24219 8.47331 8.24219 8.62305C8.24219 8.76628 8.19336 8.88997 8.0957 8.99414C7.99154 9.0918 7.86458 9.14062 7.71484 9.14062C7.57161 9.14062 7.44792 9.0918 7.34375 8.99414L6.72852 8.37891L2.83203 12.2754L6.65039 16.0938L15.0586 7.69531Z" fill="black"/>
</svg>
