<svg width="198" height="40" viewBox="0 0 198 40" fill="none" xmlns="http://www.w3.org/2000/svg">
<path d="M51.1914 5.5498V8.0498H36.1914V18.5498H50.6914V21.0498H36.1914V31.7998H52.1914V34.2998H33.4414V5.5498H51.1914Z" fill="white"/>
<path d="M103.25 5.75V8.25H93V34.5H90.25V8.25H80V5.75H103.25Z" fill="white"/>
<path fill-rule="evenodd" clip-rule="evenodd" d="M116.948 5.06999C140.168 2.68 140.389 37.1595 117.129 35.2399C99.139 33.7599 99.1585 6.90021 116.948 5.06999ZM131.471 22.0905C132.461 12.5906 126.121 6.61035 116.691 7.81022C106.052 9.16021 102.891 23.9097 111.171 30.1999C118.511 35.7798 130.47 31.7002 131.471 22.0905Z" fill="white"/>
<path fill-rule="evenodd" clip-rule="evenodd" d="M141.012 5.75028C141.012 5.75028 149.762 5.40029 153.892 5.75028H153.882C155.242 5.8703 157.622 6.41034 158.842 7.04032C160.782 8.06034 161.842 9.85016 162.132 11.8001C162.622 15.05 160.772 18.2097 157.842 19.6897L156.262 20.4895C158.842 20.4695 161.471 22.4696 161.762 25.1194C161.942 26.7394 160.952 32.4903 162.142 33.5003C162.528 33.8275 163.132 33.8399 163.142 33.8401V34.43C163.116 34.4356 159.7 35.1936 159.321 33.5696C158.941 31.9395 159.442 28.3001 159.262 26.3802C159.082 24.4602 158.482 23.1099 156.582 22.3098C155.852 21.9998 153.852 21.5003 153.142 21.5003H143.762V34.5003H141.012V5.75028ZM143.727 8.15164V19.2083H153.341C156.635 19.1949 159.303 16.5274 159.316 13.2327V13.1321C159.305 10.3866 157.082 8.1629 154.337 8.15164H143.727Z" fill="white"/>
<path fill-rule="evenodd" clip-rule="evenodd" d="M68.6201 5.75C76.18 5.75007 80.2604 12.4703 77.6904 19.3203C76.6204 22.1602 72.93 24.9999 69.8701 25H61.25V34.5H58.5V5.75H68.6201ZM61.2344 8.12402V22.876H68.6094C72.4754 22.876 75.6094 19.742 75.6094 15.876V15.124C75.6094 11.258 72.4754 8.12402 68.6094 8.12402H61.2344Z" fill="white"/>
<path fill-rule="evenodd" clip-rule="evenodd" d="M7.26172 5.75042C7.26172 5.75042 14.1418 5.47042 17.3818 5.75042C24.3317 6.34046 27.9613 10.5102 26.9414 17.56C26.4214 21.14 22.2418 25.0003 18.6318 25.0004H10.0117V34.5004H7.26172V5.75042ZM9.88281 8.12347V22.8754H17.2578C21.1238 22.8754 24.2578 19.7414 24.2578 15.8754V15.1235C24.2576 11.2577 21.1237 8.12347 17.2578 8.12347H9.88281Z" fill="white"/>
<path fill-rule="evenodd" clip-rule="evenodd" d="M179.472 5.7793L191.002 34.4893H188.187C188.163 34.4337 184.842 26.6289 184.842 26.5293L171.548 26.4697L168.472 34.4395L165.762 34.4795L177.139 5.7793L179.472 5.76953V5.7793ZM172.5 24.25H184L178.5 9.5L172.5 24.25Z" fill="white"/>
</svg>
