<svg width="32" height="32" viewBox="0 0 32 32" fill="none" xmlns="http://www.w3.org/2000/svg">
<path d="M27.5468 7.40844L20.7791 0.640813C20.3659 0.227563 19.8166 0 19.2323 0H6C4.79381 0 3.8125 0.981313 3.8125 2.1875V29.8125C3.8125 31.0187 4.79381 32 6 32H26C27.2062 32 28.1875 31.0187 28.1875 29.8125V8.95525C28.1875 8.37106 27.96 7.82175 27.5468 7.40844ZM24.9867 7.5H21C20.8277 7.5 20.6875 7.35981 20.6875 7.1875V3.20088L24.9867 7.5ZM26 30.125H6C5.82769 30.125 5.6875 29.9848 5.6875 29.8125V2.1875C5.6875 2.01519 5.82769 1.875 6 1.875H18.8125V7.1875C18.8125 8.39369 19.7938 9.375 21 9.375H26.3125V29.8125C26.3125 29.9848 26.1723 30.125 26 30.125Z" fill="#0024AD"/>
<path d="M17.0063 14.3125H22.9795C23.4973 14.3125 23.917 13.8928 23.917 13.375C23.917 12.8572 23.4973 12.4375 22.9795 12.4375H17.0063C16.4886 12.4375 16.0688 12.8572 16.0688 13.375C16.0688 13.8928 16.4885 14.3125 17.0063 14.3125Z" fill="#0024AD"/>
<path d="M17.0063 20.5625H22.9795C23.4973 20.5625 23.917 20.1428 23.917 19.625C23.917 19.1072 23.4973 18.6875 22.9795 18.6875H17.0063C16.4886 18.6875 16.0688 19.1072 16.0688 19.625C16.0688 20.1428 16.4885 20.5625 17.0063 20.5625Z" fill="#0024AD"/>
<path d="M23.0063 24.9375H17.0063C16.4886 24.9375 16.0688 25.3572 16.0688 25.875C16.0688 26.3928 16.4886 26.8125 17.0063 26.8125H23.0063C23.5241 26.8125 23.9438 26.3928 23.9438 25.875C23.9438 25.3572 23.5241 24.9375 23.0063 24.9375Z" fill="#0024AD"/>
<path d="M12.3284 10.8222L10.1664 12.9841L9.65656 12.4743C9.2905 12.1082 8.69687 12.1082 8.33075 12.4743C7.96462 12.8405 7.96462 13.434 8.33075 13.8001L9.5035 14.9729C9.68656 15.156 9.9265 15.2475 10.1664 15.2475C10.4062 15.2475 10.6462 15.156 10.8292 14.9729L13.6541 12.148C14.0202 11.7819 14.0202 11.1883 13.6541 10.8222C13.2881 10.4561 12.6944 10.4561 12.3284 10.8222Z" fill="#0024AD"/>
<path d="M12.3284 17.5495L10.1664 19.7115L9.65656 19.2017C9.2905 18.8356 8.69687 18.8356 8.33075 19.2017C7.96462 19.5678 7.96462 20.1614 8.33075 20.5275L9.5035 21.7002C9.68656 21.8833 9.9265 21.9748 10.1664 21.9748C10.4062 21.9748 10.6462 21.8833 10.8292 21.7001L13.6541 18.8753C14.0202 18.5091 14.0202 17.9156 13.6541 17.5494C13.2881 17.1834 12.6944 17.1834 12.3284 17.5495Z" fill="#0024AD"/>
<path d="M12.3284 23.7995L10.1664 25.9615L9.65656 25.4517C9.2905 25.0856 8.69687 25.0856 8.33075 25.4517C7.96462 25.8178 7.96462 26.4114 8.33075 26.7775L9.5035 27.9502C9.68656 28.1333 9.9265 28.2248 10.1664 28.2248C10.4062 28.2248 10.6462 28.1333 10.8292 27.9501L13.6541 25.1253C14.0202 24.7591 14.0202 24.1656 13.6541 23.7994C13.2881 23.4334 12.6944 23.4334 12.3284 23.7995Z" fill="#0024AD"/>
</svg>
