<svg width="32" height="32" viewBox="0 0 32 32" fill="none" xmlns="http://www.w3.org/2000/svg">
<path d="M27.0553 12.1551C27.0553 6.0601 22.0963 1.1001 16.0003 1.1001C9.90431 1.1001 4.94531 6.0601 4.94531 12.1551C4.94531 16.0211 6.94331 19.4241 9.95831 21.4011V29.5531C9.95831 30.0531 10.2323 30.5091 10.6743 30.7421C11.1163 30.9751 11.6473 30.9471 12.0603 30.6661L16.0003 27.9921L19.9403 30.6671C20.1683 30.8221 20.4313 30.9001 20.6963 30.9001C20.9113 30.9001 21.1283 30.8481 21.3263 30.7431C21.7673 30.5091 22.0423 30.0531 22.0423 29.5541V21.4021C25.0573 19.4251 27.0553 16.0211 27.0553 12.1551ZM20.2433 28.6961L16.7563 26.3281C16.2973 26.0171 15.7033 26.0171 15.2453 26.3281L11.7583 28.6951V22.3601C13.0653 22.9061 14.4983 23.2091 16.0013 23.2091C17.5043 23.2091 18.9363 22.9051 20.2443 22.3601L20.2433 28.6961ZM16.0003 21.4111C10.8963 21.4111 6.74531 17.2591 6.74531 12.1561C6.74531 7.0531 10.8963 2.9001 16.0003 2.9001C21.1043 2.9001 25.2553 7.0521 25.2553 12.1551C25.2553 17.2581 21.1043 21.4111 16.0003 21.4111Z" fill="#0024AD"/>
<path d="M20.5946 9.55218L18.2546 9.21218L17.2046 7.08518C16.9766 6.62318 16.5146 6.33618 16.0006 6.33618C15.4866 6.33618 15.0246 6.62318 14.7966 7.08418L13.7466 9.21118L11.3986 9.55218C10.8896 9.62618 10.4736 9.97618 10.3146 10.4662C10.1556 10.9562 10.2866 11.4832 10.6546 11.8422L12.3536 13.4982L11.9526 15.8362C11.8656 16.3442 12.0706 16.8472 12.4876 17.1492C12.7226 17.3202 12.9986 17.4072 13.2746 17.4072C13.4876 17.4072 13.7026 17.3552 13.9006 17.2512L16.0006 16.1472L18.1006 17.2512C18.5556 17.4912 19.0966 17.4532 19.5146 17.1492C19.9316 16.8472 20.1366 16.3432 20.0496 15.8362L19.6466 13.5002L21.3396 11.8492C21.7096 11.4892 21.8396 10.9602 21.6806 10.4692C21.5216 9.97818 21.1056 9.62618 20.5946 9.55218ZM18.0516 12.5412C17.8396 12.7482 17.7426 13.0462 17.7926 13.3382L18.1166 15.2292L16.4186 14.3362C16.2876 14.2672 16.1436 14.2332 15.9996 14.2332C15.8556 14.2332 15.7116 14.2672 15.5806 14.3362L13.8826 15.2292L14.2066 13.3382C14.2566 13.0462 14.1596 12.7482 13.9476 12.5412L12.5736 11.2022L14.4716 10.9262C14.7646 10.8842 15.0176 10.6992 15.1496 10.4342L16.0006 8.71218L16.8496 10.4332C16.9806 10.6992 17.2346 10.8832 17.5276 10.9252L19.4256 11.2012L18.0516 12.5412Z" fill="#0024AD"/>
</svg>
