<svg width="32" height="32" viewBox="0 0 32 32" fill="none" xmlns="http://www.w3.org/2000/svg">
<path d="M28.2133 22.1787C28.7209 20.1578 28.985 18.0836 29 16C29 12.5522 27.6304 9.24558 25.1924 6.80761C22.7544 4.36964 19.4478 3 16 3C12.5522 3 9.24558 4.36964 6.80761 6.80761C4.36964 9.24558 3 12.5522 3 16C3.01497 18.0836 3.27907 20.1578 3.78667 22.1787C3.796 22.2227 3.79467 22.2653 3.80533 22.312C3.82933 22.4093 3.86267 22.4987 3.888 22.5947C3.91333 22.6907 3.93867 22.824 3.97067 22.9373C3.97067 22.9627 3.996 22.9813 4.00533 23.0067C4.13867 23.468 4.25333 23.94 4.39733 24.372L5.028 26.416C5.26089 27.1639 5.72652 27.8179 6.35704 28.2827C6.98755 28.7475 7.75002 28.9988 8.53333 29C8.89496 28.9999 9.25453 28.9456 9.6 28.8387L10.8867 28.4387C11.18 28.3496 11.4528 28.2034 11.6895 28.0086C11.9263 27.8139 12.1222 27.5743 12.2661 27.3036C12.4101 27.033 12.4992 26.7366 12.5283 26.4314C12.5575 26.1263 12.5261 25.8183 12.436 25.5253L10.46 19.0573C10.3702 18.7643 10.2235 18.4918 10.0283 18.2554C9.8331 18.019 9.59326 17.8235 9.32246 17.6798C9.05166 17.5362 8.75521 17.4473 8.45006 17.4183C8.1449 17.3893 7.83702 17.4207 7.544 17.5107L6.288 17.8947C5.87818 18.0234 5.49445 18.2238 5.15467 18.4867C5.05753 17.6612 5.00589 16.8311 5 16C5 13.0826 6.15893 10.2847 8.22183 8.22183C10.2847 6.15893 13.0826 5 16 5C18.9174 5 21.7153 6.15893 23.7782 8.22183C25.8411 10.2847 27 13.0826 27 16C26.9941 16.8315 26.9425 17.6621 26.8453 18.488C26.5059 18.2246 26.1221 18.0241 25.712 17.896L24.456 17.5107C24.1629 17.4207 23.8549 17.3894 23.5497 17.4185C23.2445 17.4476 22.948 17.5366 22.6772 17.6803C22.4064 17.8241 22.1665 18.0198 21.9714 18.2563C21.7763 18.4928 21.6297 18.7655 21.54 19.0587L19.5613 25.5307C19.4712 25.8237 19.4397 26.1316 19.4688 26.4368C19.4978 26.742 19.5868 27.0384 19.7306 27.3092C19.8744 27.5799 20.0702 27.8196 20.3068 28.0146C20.5434 28.2096 20.8161 28.3559 21.1093 28.4453L22.3973 28.8453C22.7428 28.9522 23.1024 29.0066 23.464 29.0067C24.2479 29.0056 25.0109 28.754 25.6417 28.2887C26.2725 27.8233 26.7382 27.1686 26.9707 26.42L27.5987 24.3853C27.7453 23.9427 27.8653 23.4827 27.9893 23.0253C28 22.996 28.02 22.972 28.028 22.9413C28.06 22.828 28.0813 22.7133 28.1107 22.6C28.14 22.4867 28.1693 22.412 28.1933 22.316C28.2053 22.2667 28.204 22.2227 28.2133 22.1787ZM6.88 19.8067L8.13733 19.4213C8.16948 19.4125 8.20266 19.408 8.236 19.408C8.30722 19.4079 8.37658 19.4307 8.43393 19.4729C8.49127 19.5152 8.53359 19.5746 8.55467 19.6427L10.5333 26.1187C10.5462 26.1602 10.5507 26.204 10.5463 26.2472C10.542 26.2905 10.5289 26.3325 10.508 26.3707C10.4877 26.4096 10.4597 26.4441 10.4258 26.472C10.3919 26.5 10.3528 26.5208 10.3107 26.5333L9.02533 26.9333C8.81507 26.9987 8.59394 27.0218 8.3747 27.0013C8.15546 26.9808 7.94246 26.917 7.74797 26.8138C7.55349 26.7105 7.38137 26.5698 7.24155 26.3997C7.10173 26.2296 6.99698 26.0335 6.93333 25.8227L6.29733 23.7587C6.116 23.2147 5.96 22.6507 5.81467 22.084C5.788 21.9813 5.76667 21.8773 5.74 21.7747C5.64901 21.3644 5.71486 20.9348 5.9246 20.5706C6.13434 20.2064 6.47278 19.9339 6.87333 19.8067H6.88ZM25.704 23.7587V23.7787L25.0667 25.8227C24.9357 26.2441 24.6434 26.5967 24.2535 26.8035C23.8636 27.0103 23.4077 27.0546 22.9853 26.9267L21.7 26.5267C21.6155 26.5008 21.5446 26.4425 21.5029 26.3646C21.4612 26.2866 21.452 26.1954 21.4773 26.1107L23.4573 19.6373C23.4782 19.5691 23.5204 19.5093 23.5778 19.4668C23.6351 19.4243 23.7046 19.4014 23.776 19.4013C23.8093 19.4014 23.8425 19.4058 23.8747 19.4147L25.132 19.8013C25.5315 19.9294 25.8686 20.2021 26.0774 20.5659C26.2861 20.9298 26.3512 21.3586 26.26 21.768C26.2333 21.8707 26.212 21.9747 26.1853 22.0773C26.0347 22.6507 25.8787 23.2147 25.6973 23.7587H25.704Z" fill="#0024AD"/>
</svg>
