<svg width="32" height="32" viewBox="0 0 32 32" fill="none" xmlns="http://www.w3.org/2000/svg">
<path d="M16.0008 2C15.496 2 14.9912 2.33946 15.0008 3.01562V6.14453L13.1629 4.30469C12.77 3.90039 12.1194 3.90026 11.7313 4.30069C11.3435 4.70131 11.3536 5.334 11.7489 5.71866C12.8329 6.80264 13.9168 7.88659 15.0008 8.97061V14.2694L10.4111 11.621C10.0142 10.1399 9.6185 8.65874 9.22167 7.17764C9.08621 6.64295 8.54383 6.31938 8.00295 6.45499C7.46214 6.59088 7.13645 7.15273 7.29008 7.69522L7.96389 10.2069L5.25303 8.64249C4.77918 8.36018 4.16663 8.51367 3.88003 8.9921C3.59368 9.47066 3.76084 10.098 4.25306 10.373L6.96197 11.9374L4.45228 12.6093C3.90566 12.7475 3.58082 13.3113 3.73355 13.8476C3.88654 14.3838 4.43908 14.691 4.96984 14.5409C6.45013 14.1443 7.93081 13.7481 9.41112 13.3515L14.0008 16.0019L9.41112 18.6503C7.93081 18.2536 6.45013 17.8575 4.96984 17.4609C4.43908 17.3108 3.88654 17.618 3.73355 18.1542C3.58082 18.6905 3.90566 19.2543 4.45228 19.3925L6.96392 20.0644L4.25306 21.6288C3.76084 21.9038 3.59368 22.5311 3.88003 23.0097C4.16663 23.4881 4.77918 23.6416 5.25303 23.3593L7.96389 21.7948L7.29008 24.3065C7.13645 24.849 7.46213 25.4109 8.00295 25.5468C8.54383 25.6824 9.08621 25.3588 9.22167 24.8241C9.6185 23.343 10.0142 21.8619 10.4111 20.3808L15.0008 17.7323V23.0312C13.9168 24.1152 12.8329 25.1991 11.7489 26.2831C11.3536 26.6678 11.3435 27.3005 11.7313 27.7011C12.1194 28.1016 12.77 28.1015 13.1629 27.6971L15.0008 25.8592V28.9861C14.9928 29.5499 15.451 30.0085 16.0086 29.9998C16.5662 29.9908 17.0083 29.5377 17.0007 28.9861V25.8631L18.8366 27.6971C19.2296 28.1014 19.8801 28.1015 20.2682 27.7011C20.6561 27.3005 20.646 26.6678 20.2506 26.2831C19.1673 25.1998 18.084 24.1165 17.0007 23.0331V17.7343L21.5885 20.3827C21.9852 21.8632 22.3832 23.3436 22.7798 24.8241C22.9153 25.3588 23.4577 25.6824 23.9986 25.5468C24.5394 25.4109 24.8651 24.849 24.7114 24.3065L24.0396 21.7968L26.7465 23.3593C27.9081 24.052 28.9272 22.2865 27.7465 21.6269L25.0395 20.0644L27.5473 19.3925C28.0939 19.2543 28.4187 18.6905 28.266 18.1542C28.113 17.618 27.5605 17.3108 27.0297 17.4609C25.55 17.8574 24.0701 18.2538 22.5904 18.6503L18.0007 16.0019L22.5904 13.3515C24.0701 13.748 25.55 14.1444 27.0297 14.5409C27.5605 14.691 28.113 14.3838 28.266 13.8476C28.4187 13.3113 28.0939 12.7475 27.5473 12.6093L25.0395 11.9374L27.7465 10.3749C28.9272 9.71529 27.9081 7.94975 26.7465 8.64249L24.0376 10.2069L24.7114 7.69522C24.8651 7.15273 24.5394 6.59088 23.9986 6.45499C23.4577 6.31938 22.9153 6.64296 22.7798 7.17764C22.383 8.65875 21.9853 10.1399 21.5885 11.621L17.0007 14.2694V8.96866C18.084 7.88529 19.1673 6.80199 20.2506 5.71866C20.646 5.334 20.6561 4.70131 20.2682 4.30069C19.8801 3.90017 19.2296 3.9003 18.8366 4.30469L17.0007 6.14062V3.01562C17.0107 2.33946 16.5055 2 16.0008 2Z" fill="#0024AD"/>
</svg>
