<svg width="32" height="32" viewBox="0 0 32 32" fill="none" xmlns="http://www.w3.org/2000/svg">
<g clip-path="url(#clip0_59_193)">
<path d="M31.7255 7.12126C31.3594 6.75513 30.7658 6.75519 30.3997 7.12126C29.9576 7.56338 29.4708 7.91232 28.948 8.18938L23.8107 3.05213C24.0877 2.52932 24.4367 2.04251 24.8788 1.60038C25.2449 1.23426 25.2449 0.640695 24.8788 0.27457C24.5127 -0.0914922 23.9191 -0.0915547 23.553 0.27457C21.1157 2.71169 20.9025 5.98757 20.8839 9.24482C17.6268 9.26351 14.351 9.47669 11.9139 11.9139C9.47674 14.351 9.26348 17.6268 9.2448 20.8839C5.98755 20.9026 2.71167 21.1158 0.274547 23.553C-0.0915156 23.9191 -0.0915156 24.5127 0.274547 24.8788C0.640672 25.2449 1.23423 25.2449 1.60036 24.8788C2.04248 24.4367 2.52923 24.0878 3.05205 23.8107L8.1893 28.9479C7.91224 29.4708 7.5633 29.9575 7.12117 30.3997C6.75505 30.7658 6.75505 31.3594 7.12117 31.7255C7.4873 32.0916 8.08086 32.0916 8.44699 31.7255C10.8842 29.2884 11.0974 26.0125 11.116 22.7553C14.3732 22.7366 17.6489 22.5234 20.0861 20.0861C22.5232 17.6491 22.7365 14.3733 22.7552 11.1161C26.0124 11.0975 29.2883 10.8843 31.7254 8.44707C32.0916 8.08094 32.0916 7.48738 31.7255 7.12126ZM26.9957 8.88876C25.6902 9.18126 24.2521 9.23244 22.7589 9.24113C22.7676 7.74801 22.8188 6.30988 23.1113 5.00438L26.9957 8.88876ZM20.5279 15.3562L16.6439 11.4722C17.9493 11.1798 19.3873 11.1285 20.8802 11.1198C20.8716 12.6128 20.8204 14.0508 20.5279 15.3562ZM11.4722 16.6438L15.3562 20.5278C14.0508 20.8203 12.6128 20.8715 11.1199 20.8802C11.1285 19.3873 11.1797 17.9493 11.4722 16.6438ZM5.00442 23.1113C6.30992 22.8188 7.74805 22.7676 9.24117 22.7589C9.23249 24.252 9.1813 25.6901 8.8888 26.9956L5.00442 23.1113ZM17.3085 19.8285L12.1715 14.6916C12.4486 14.1687 12.7975 13.6819 13.2398 13.2398C13.682 12.7976 14.1688 12.4486 14.6916 12.1715L19.8286 17.3084C19.5515 17.8313 19.2026 18.3181 18.7603 18.7603C18.3182 19.2025 17.8314 19.5514 17.3085 19.8285Z" fill="white"/>
</g>
<defs>
<clipPath id="clip0_59_193">
<rect width="32" height="32" fill="white"/>
</clipPath>
</defs>
</svg>
