<svg width="12" height="20" viewBox="0 0 12 20" fill="none" xmlns="http://www.w3.org/2000/svg">
<path d="M4.12109 12.9883V11.0156C4.12109 10.4102 4.32943 9.8763 4.74609 9.41406C5.16927 8.94531 5.70312 8.6556 6.34766 8.54492C6.89453 8.45378 7.34375 8.20964 7.69531 7.8125C8.05339 7.40885 8.23242 6.94987 8.23242 6.43555V5.55664C8.23242 5.15951 8.13151 4.79818 7.92969 4.47266C7.72786 4.14062 7.45443 3.8737 7.10938 3.67188C6.76432 3.46354 6.38346 3.35612 5.9668 3.34961C5.31576 3.33659 4.75911 3.54167 4.29688 3.96484C3.83464 4.38151 3.60352 4.88932 3.60352 5.48828C3.60352 5.95052 3.42773 6.3444 3.07617 6.66992C2.72461 6.99544 2.30143 7.1582 1.80664 7.1582C1.31185 7.1582 0.885417 6.99544 0.527344 6.66992C0.175781 6.3444 0 5.95052 0 5.48828C0 4.74609 0.152995 4.03971 0.458984 3.36914C0.764974 2.69206 1.20443 2.09635 1.77734 1.58203C2.35026 1.0612 3.00456 0.667318 3.74023 0.400391C4.47591 0.133464 5.24414 0.00651042 6.04492 0.0195312C6.83919 0.0390625 7.58464 0.195312 8.28125 0.488281C8.98438 0.78125 9.60286 1.18164 10.1367 1.68945C10.6706 2.19727 11.0872 2.7832 11.3867 3.44727C11.6862 4.10482 11.8359 4.80794 11.8359 5.55664V6.43555C11.8359 7.22331 11.6667 7.96549 11.3281 8.66211C10.9896 9.35221 10.5208 9.95443 9.92188 10.4688C9.32292 10.9831 8.62956 11.3639 7.8418 11.6113C7.75716 11.6374 7.71484 11.6927 7.71484 11.7773V12.9785C7.71484 13.4408 7.53906 13.8346 7.1875 14.1602C6.83594 14.4857 6.41276 14.6484 5.91797 14.6484C5.42318 14.6484 5 14.4857 4.64844 14.1602C4.29688 13.8346 4.12109 13.444 4.12109 12.9883ZM5.85938 19.4238C5.61198 19.4238 5.38086 19.3783 5.16602 19.2871C4.95768 19.196 4.77214 19.069 4.60938 18.9062C4.44661 18.7435 4.31966 18.5547 4.22852 18.3398C4.13737 18.1315 4.0918 17.9036 4.0918 17.6562C4.0918 17.4154 4.13737 17.1875 4.22852 16.9727C4.31966 16.7643 4.44661 16.5788 4.60938 16.416C4.77214 16.2533 4.95768 16.1263 5.16602 16.0352C5.38086 15.944 5.61198 15.8984 5.85938 15.8984C6.10026 15.8984 6.32487 15.944 6.5332 16.0352C6.74805 16.1263 6.93685 16.2533 7.09961 16.416C7.26237 16.5788 7.38932 16.7643 7.48047 16.9727C7.57161 17.1875 7.61719 17.4154 7.61719 17.6562C7.61719 17.9036 7.57161 18.1315 7.48047 18.3398C7.38932 18.5547 7.26237 18.7435 7.09961 18.9062C6.93685 19.069 6.74805 19.196 6.5332 19.2871C6.32487 19.3783 6.10026 19.4238 5.85938 19.4238Z" fill="black"/>
</svg>
