<svg width="32" height="32" viewBox="0 0 32 32" fill="none" xmlns="http://www.w3.org/2000/svg">
<path d="M15.5588 6.94966C15.7428 6.5726 16.2585 6.57262 16.4425 6.94966L17.5272 9.17303C17.5992 9.3206 17.7344 9.42331 17.8911 9.44936L20.2489 9.84161C20.6485 9.90809 20.8079 10.4196 20.522 10.7189L18.834 12.4868C18.7223 12.6039 18.6707 12.7698 18.6953 12.9332L19.0673 15.4005C19.1304 15.8184 18.7133 16.1347 18.3524 15.9427L16.2257 14.8111C16.0844 14.7357 15.9169 14.7357 15.7756 14.8111L13.6489 15.9427C13.288 16.1347 12.8709 15.8184 12.9339 15.4005L13.306 12.9332C13.3306 12.7698 13.2791 12.6039 13.1673 12.4868L11.4793 10.7189C11.1935 10.4196 11.3528 9.90809 11.7524 9.84161L14.1103 9.44936C14.2669 9.42331 14.4021 9.3206 14.4741 9.17303L15.5588 6.94966Z" stroke="#2B848F" stroke-width="2" stroke-linecap="round" stroke-linejoin="round"/>
<path d="M25.3327 12C25.3327 17.1546 21.154 21.3333 15.9993 21.3333C10.8447 21.3333 6.66602 17.1546 6.66602 12C6.66602 6.84531 10.8447 2.66663 15.9993 2.66663C21.154 2.66663 25.3327 6.84531 25.3327 12Z" stroke="#2B848F" stroke-width="2" stroke-linecap="round" stroke-linejoin="round"/>
<path d="M17.334 21.7898L19.5025 27.535C19.9395 28.6926 20.158 29.2714 20.538 29.3333C20.9189 29.277 21.3856 28.6405 21.8417 27.4896C22.1684 26.6654 22.3316 26.2534 22.668 26.0313C22.7712 25.9632 22.884 25.9093 23.0033 25.8713C23.3921 25.7477 23.8393 25.8686 24.7336 26.1104C25.6899 26.3689 26.3541 26.2968 26.6164 26.1104C26.6936 26.0556 26.6164 26.1062 26.6164 26.1062C26.7708 25.8324 26.5624 25.4052 26.1457 24.5508L23.2755 18.6666" stroke="#2B848F" stroke-width="2" stroke-linecap="round" stroke-linejoin="round"/>
<path d="M14.6673 21.7894L12.4988 27.5337C12.0619 28.691 11.6296 29.2714 11.2496 29.3333C10.8686 29.277 10.6405 28.7017 10.1844 27.5509C9.85781 26.727 9.66965 26.2524 9.33329 26.0301C9.23016 25.962 9.11725 25.9082 8.99803 25.8702C8.60916 25.7466 8.162 25.8676 7.26768 26.1093C6.31143 26.3677 5.64719 26.2914 5.38485 26.105C5.23048 25.8313 5.43887 25.4041 5.85563 24.5498L8.72581 18.6666" stroke="#2B848F" stroke-width="2" stroke-linecap="round" stroke-linejoin="round"/>
</svg>
