<svg width="32" height="32" viewBox="0 0 32 32" fill="none" xmlns="http://www.w3.org/2000/svg">
<path fill-rule="evenodd" clip-rule="evenodd" d="M32 16.2222C32 13.9467 30.8978 12.1512 28.7911 12.1512C26.6756 12.1512 25.3956 13.9467 25.3956 16.2045C25.3956 18.8801 26.9067 20.2312 29.0755 20.2312C30.1333 20.2312 30.9334 19.9912 31.5378 19.6534V17.8756C30.9333 18.1778 30.24 18.3645 29.36 18.3645C28.4978 18.3645 27.7333 18.0622 27.6355 17.0133H31.9822C31.9822 16.8978 32 16.4355 32 16.2222ZM27.6089 15.3778C27.6089 14.3733 28.2223 13.9555 28.7822 13.9555C29.3245 13.9555 29.9023 14.3733 29.9023 15.3778H27.6089Z" fill="#635BFF"/>
<path fill-rule="evenodd" clip-rule="evenodd" d="M21.9645 12.1512C21.0934 12.1512 20.5333 12.56 20.2222 12.8445L20.1067 12.2934H18.1511V22.6579L20.3733 22.1868L20.3822 19.6712C20.7022 19.9024 21.1733 20.2312 21.9555 20.2312C23.5467 20.2312 24.9955 18.9512 24.9955 16.1334C24.9867 13.5556 23.52 12.1512 21.9645 12.1512ZM21.4311 18.2756C20.9066 18.2756 20.5956 18.0889 20.3822 17.8578L20.3733 14.56C20.6045 14.3022 20.9245 14.1245 21.4311 14.1245C22.24 14.1245 22.8 15.0311 22.8 16.1956C22.8001 17.3867 22.2489 18.2756 21.4311 18.2756Z" fill="#635BFF"/>
<path fill-rule="evenodd" clip-rule="evenodd" d="M15.0933 11.6267L17.3244 11.1467V9.34225L15.0933 9.81336V11.6267Z" fill="#635BFF"/>
<path d="M17.3244 12.3022H15.0933V20.08H17.3244V12.3022Z" fill="#635BFF"/>
<path fill-rule="evenodd" clip-rule="evenodd" d="M12.7022 12.96L12.56 12.3022H10.64V20.08H12.8622V14.8089C13.3867 14.1244 14.2756 14.2489 14.5511 14.3466V12.3022C14.2667 12.1956 13.2267 12 12.7022 12.96Z" fill="#635BFF"/>
<path fill-rule="evenodd" clip-rule="evenodd" d="M8.25781 10.3734L6.08889 10.8356L6.08002 17.9556C6.08002 19.2711 7.06667 20.24 8.38224 20.24C9.11115 20.24 9.64444 20.1067 9.9378 19.9467V18.1422C9.65338 18.2578 8.24893 18.6667 8.24893 17.3511V14.1956H9.9378V12.3023H8.24893L8.25781 10.3734Z" fill="#635BFF"/>
<path fill-rule="evenodd" clip-rule="evenodd" d="M2.24891 14.56C2.24891 14.2133 2.53334 14.08 3.00445 14.08C3.67998 14.08 4.53332 14.2844 5.20892 14.6489V12.56C4.47114 12.2667 3.74223 12.1512 3.00445 12.1512C1.20002 12.1512 0 13.0934 0 14.6667C0 17.12 3.37781 16.7289 3.37781 17.7867C3.37781 18.1956 3.02226 18.3289 2.52446 18.3289C1.78668 18.3289 0.844467 18.0267 0.0978087 17.6178V19.7334C0.924464 20.0889 1.76006 20.24 2.52446 20.24C4.37333 20.24 5.64447 19.3244 5.64447 17.7334C5.63559 15.0845 2.24891 15.5556 2.24891 14.56Z" fill="#635BFF"/>
</svg>
