<svg width="40" height="40" viewBox="0 0 40 40" fill="none" xmlns="http://www.w3.org/2000/svg">
<path d="M28.3333 33.3333C30.1743 33.3333 31.6667 31.8409 31.6667 30C31.6667 28.159 30.1743 26.6667 28.3333 26.6667C26.4924 26.6667 25 28.159 25 30C25 31.8409 26.4924 33.3333 28.3333 33.3333Z" stroke="#2B848F" stroke-width="2.5"/>
<path d="M11.6663 33.3333C13.5073 33.3333 14.9997 31.8409 14.9997 30C14.9997 28.159 13.5073 26.6667 11.6663 26.6667C9.82539 26.6667 8.33301 28.159 8.33301 30C8.33301 31.8409 9.82539 33.3333 11.6663 33.3333Z" stroke="#2B848F" stroke-width="2.5"/>
<path d="M8.33301 29.954C6.50514 29.863 5.36484 29.591 4.55339 28.7797C3.74194 27.9682 3.47004 26.8278 3.37892 25M14.9997 30H24.9997M31.6663 29.954C33.4942 29.863 34.6345 29.591 35.446 28.7797C36.6663 27.5592 36.6663 25.595 36.6663 21.6667V18.3333H28.833C27.5922 18.3333 26.9717 18.3333 26.4697 18.1702C25.4548 17.8405 24.6592 17.0448 24.3295 16.03C24.1663 15.5279 24.1663 14.9075 24.1663 13.6667C24.1663 11.8054 24.1663 10.8747 23.9217 10.1216C23.427 8.5994 22.2337 7.40596 20.7115 6.91138C19.9583 6.66666 19.0277 6.66666 17.1663 6.66666H3.33301" stroke="#2B848F" stroke-width="2.5" stroke-linecap="round" stroke-linejoin="round"/>
<path d="M3.33301 13.3333H13.333" stroke="#2B848F" stroke-width="2.5" stroke-linecap="round" stroke-linejoin="round"/>
<path d="M3.33301 18.3333H9.99967" stroke="#2B848F" stroke-width="2.5" stroke-linecap="round" stroke-linejoin="round"/>
<path d="M24.167 10H27.2023C29.628 10 30.8407 10 31.8277 10.5895C32.8147 11.179 33.3897 12.2469 34.5397 14.3825L36.667 18.3333" stroke="#2B848F" stroke-width="2.5" stroke-linecap="round" stroke-linejoin="round"/>
</svg>
