<svg width="40" height="40" viewBox="0 0 40 40" fill="none" xmlns="http://www.w3.org/2000/svg">
<path d="M19.447 8.68712C19.677 8.21581 20.3217 8.21582 20.5517 8.68712L21.9075 11.4663C21.9975 11.6508 22.1665 11.7792 22.3624 11.8118L25.3097 12.3021C25.8092 12.3852 26.0083 13.0246 25.651 13.3987L23.541 15.6086C23.4014 15.755 23.3369 15.9623 23.3677 16.1666L23.8327 19.2507C23.9115 19.773 23.3902 20.1684 22.939 19.9284L20.2807 18.5139C20.104 18.4197 19.8947 18.4197 19.718 18.5139L17.0597 19.9284C16.6086 20.1684 16.0872 19.773 16.1659 19.2507L16.631 16.1666C16.6618 15.9623 16.5974 15.755 16.4576 15.6086L14.3476 13.3987C13.9904 13.0246 14.1895 12.3852 14.689 12.3021L17.6363 11.8118C17.8322 11.7792 18.0012 11.6508 18.0912 11.4663L19.447 8.68712Z" stroke="#2B848F" stroke-width="2.5" stroke-linecap="round" stroke-linejoin="round"/>
<path d="M31.6673 15C31.6673 21.4433 26.444 26.6667 20.0007 26.6667C13.5573 26.6667 8.33398 21.4433 8.33398 15C8.33398 8.55669 13.5573 3.33334 20.0007 3.33334C26.444 3.33334 31.6673 8.55669 31.6673 15Z" stroke="#2B848F" stroke-width="2.5" stroke-linecap="round" stroke-linejoin="round"/>
<path d="M21.666 27.2373L24.3767 34.4188C24.9228 35.8658 25.196 36.5893 25.671 36.6667C26.1472 36.5963 26.7305 35.8007 27.3007 34.362C27.709 33.3318 27.913 32.8168 28.3335 32.5392C28.4625 32.454 28.6035 32.3867 28.7527 32.3392C29.2387 32.1847 29.7977 32.3358 30.9155 32.638C32.1108 32.9612 32.9412 32.871 33.269 32.638C33.3655 32.5695 33.269 32.6328 33.269 32.6328C33.462 32.2905 33.2015 31.7565 32.6807 30.6885L29.0928 23.3333" stroke="#2B848F" stroke-width="2.5" stroke-linecap="round" stroke-linejoin="round"/>
<path d="M18.3327 27.2368L15.622 34.4172C15.0759 35.8638 14.5355 36.5893 14.0605 36.6667C13.5843 36.5963 13.2992 35.8772 12.729 34.4387C12.3208 33.4088 12.0856 32.8155 11.6652 32.5377C11.5362 32.4525 11.3951 32.3853 11.2461 32.3378C10.76 32.1833 10.201 32.3345 9.08314 32.6367C7.88782 32.9597 7.05752 32.8643 6.7296 32.6313C6.53664 32.2892 6.79712 31.7552 7.31807 30.6873L10.9058 23.3333" stroke="#2B848F" stroke-width="2.5" stroke-linecap="round" stroke-linejoin="round"/>
</svg>
