<svg width="40" height="40" viewBox="0 0 40 40" fill="none" xmlns="http://www.w3.org/2000/svg">
<path d="M28.3333 33.3333C30.1743 33.3333 31.6667 31.8409 31.6667 30C31.6667 28.159 30.1743 26.6667 28.3333 26.6667C26.4924 26.6667 25 28.159 25 30C25 31.8409 26.4924 33.3333 28.3333 33.3333Z" stroke="#2B848F" stroke-width="2.5"/>
<path d="M11.6673 33.3333C13.5083 33.3333 15.0007 31.8409 15.0007 30C15.0007 28.159 13.5083 26.6667 11.6673 26.6667C9.82637 26.6667 8.33398 28.159 8.33398 30C8.33398 31.8409 9.82637 33.3333 11.6673 33.3333Z" stroke="#2B848F" stroke-width="2.5"/>
<path d="M8.33398 29.954C6.50612 29.863 5.36582 29.591 4.55437 28.7797C3.74292 27.9682 3.47102 26.8278 3.3799 25M15.0007 30H25.0007M31.6673 29.954C33.4952 29.863 34.6355 29.591 35.447 28.7797C36.6673 27.5592 36.6673 25.595 36.6673 21.6667V18.3333H28.834C27.5931 18.3333 26.9727 18.3333 26.4707 18.1702C25.4558 17.8405 24.6602 17.0448 24.3305 16.03C24.1673 15.5279 24.1673 14.9075 24.1673 13.6667C24.1673 11.8054 24.1673 10.8747 23.9227 10.1216C23.428 8.5994 22.2347 7.40596 20.7125 6.91138C19.9593 6.66666 19.0287 6.66666 17.1673 6.66666H3.33398" stroke="#2B848F" stroke-width="2.5" stroke-linecap="round" stroke-linejoin="round"/>
<path d="M3.33398 13.3333H13.334" stroke="#2B848F" stroke-width="2.5" stroke-linecap="round" stroke-linejoin="round"/>
<path d="M3.33398 18.3333H10.0007" stroke="#2B848F" stroke-width="2.5" stroke-linecap="round" stroke-linejoin="round"/>
<path d="M24.166 10H27.2013C29.627 10 30.8397 10 31.8267 10.5895C32.8137 11.179 33.3887 12.2469 34.5387 14.3825L36.666 18.3333" stroke="#2B848F" stroke-width="2.5" stroke-linecap="round" stroke-linejoin="round"/>
</svg>
