<svg xmlns="http://www.w3.org/2000/svg" xmlns:xlink="http://www.w3.org/1999/xlink" width="1500" zoomAndPan="magnify" viewBox="0 0 1125 149.999998" height="200" preserveAspectRatio="xMidYMid meet" version="1.0"><defs><g/></defs><rect x="-112.5" width="1350" fill="#ffffff" y="-15" height="179.999997" fill-opacity="1"/><rect x="-112.5" width="1350" fill="#f7f8fa" y="-15" height="179.999997" fill-opacity="1"/><g fill="#ffffff" fill-opacity="1"><g transform="translate(15.105477, 102.504129)"><g><path d="M 71.421875 -86.71875 C 74.535156 -84.207031 76.867188 -81.160156 78.421875 -77.578125 C 79.972656 -73.992188 80.75 -70.34375 80.75 -66.625 C 80.75 -56.34375 77.078125 -48.566406 69.734375 -43.296875 C 64.804688 -39.660156 57.242188 -37.84375 47.046875 -37.84375 L 22.296875 -37.84375 L 22.296875 0 L 9.984375 0 L 9.984375 -92.8125 L 46.921875 -92.8125 C 52.890625 -92.8125 57.726562 -92.378906 61.4375 -91.515625 C 65.15625 -90.648438 68.484375 -89.050781 71.421875 -86.71875 Z M 68.046875 -66.375 C 68.046875 -68.269531 67.59375 -70.316406 66.6875 -72.515625 C 65.78125 -74.722656 64.550781 -76.519531 63 -77.90625 C 61.269531 -79.457031 59.28125 -80.515625 57.03125 -81.078125 C 54.789062 -81.640625 51.8125 -81.921875 48.09375 -81.921875 L 22.296875 -81.921875 L 22.296875 -48.734375 L 46.921875 -48.734375 C 54.097656 -48.734375 59.410156 -50.160156 62.859375 -53.015625 C 66.316406 -55.867188 68.046875 -60.320312 68.046875 -66.375 Z M 68.046875 -66.375 "/></g></g></g><g fill="#ffffff" fill-opacity="1"><g transform="translate(101.562782, 102.504129)"><g><path d="M 77.390625 -81.921875 L 22.5625 -81.921875 L 22.5625 -53.40625 L 73.890625 -53.40625 L 73.890625 -42.515625 L 22.5625 -42.515625 L 22.5625 -10.890625 L 79.453125 -10.890625 L 79.453125 0 L 10.234375 0 L 10.234375 -92.8125 L 77.390625 -92.8125 Z M 77.390625 -81.921875 "/></g></g></g><g fill="#ffffff" fill-opacity="1"><g transform="translate(188.020087, 102.504129)"><g><path d="M 71.421875 -86.71875 C 74.535156 -84.207031 76.867188 -81.160156 78.421875 -77.578125 C 79.972656 -73.992188 80.75 -70.34375 80.75 -66.625 C 80.75 -56.34375 77.078125 -48.566406 69.734375 -43.296875 C 64.804688 -39.660156 57.242188 -37.84375 47.046875 -37.84375 L 22.296875 -37.84375 L 22.296875 0 L 9.984375 0 L 9.984375 -92.8125 L 46.921875 -92.8125 C 52.890625 -92.8125 57.726562 -92.378906 61.4375 -91.515625 C 65.15625 -90.648438 68.484375 -89.050781 71.421875 -86.71875 Z M 68.046875 -66.375 C 68.046875 -68.269531 67.59375 -70.316406 66.6875 -72.515625 C 65.78125 -74.722656 64.550781 -76.519531 63 -77.90625 C 61.269531 -79.457031 59.28125 -80.515625 57.03125 -81.078125 C 54.789062 -81.640625 51.8125 -81.921875 48.09375 -81.921875 L 22.296875 -81.921875 L 22.296875 -48.734375 L 46.921875 -48.734375 C 54.097656 -48.734375 59.410156 -50.160156 62.859375 -53.015625 C 66.316406 -55.867188 68.046875 -60.320312 68.046875 -66.375 Z M 68.046875 -66.375 "/></g></g></g><g fill="#ffffff" fill-opacity="1"><g transform="translate(274.47738, 102.504129)"><g><path d="M 76.484375 -81.921875 L 45.75 -81.921875 L 45.75 0 L 33.4375 0 L 33.4375 -81.921875 L 2.859375 -81.921875 L 2.859375 -92.8125 L 76.484375 -92.8125 Z M 76.484375 -81.921875 "/></g></g></g><g fill="#ffffff" fill-opacity="1"><g transform="translate(353.675892, 102.504129)"><g><path d="M 24.234375 0 L 11.921875 0 L 11.921875 -92.8125 L 24.234375 -92.8125 Z M 24.234375 0 "/></g></g></g><g fill="#ffffff" fill-opacity="1"><g transform="translate(389.710589, 102.504129)"><g><path d="M 67.921875 -88.015625 C 74.234375 -84.390625 79.007812 -79.03125 82.25 -71.9375 C 85.488281 -64.851562 87.109375 -56.554688 87.109375 -47.046875 C 87.109375 -39.191406 85.941406 -31.847656 83.609375 -25.015625 C 81.273438 -18.191406 77.734375 -12.789062 72.984375 -8.8125 C 69.441406 -5.875 65.507812 -3.671875 61.1875 -2.203125 C 56.863281 -0.734375 51.460938 0 44.984375 0 L 10.375 0 L 10.375 -92.8125 L 44.078125 -92.8125 C 49.515625 -92.8125 54.023438 -92.484375 57.609375 -91.828125 C 61.203125 -91.179688 64.640625 -89.910156 67.921875 -88.015625 Z M 74.40625 -47.1875 C 74.40625 -56.601562 72.9375 -63.878906 70 -69.015625 C 67.0625 -74.160156 63.5625 -77.597656 59.5 -79.328125 C 55.4375 -81.054688 50.335938 -81.921875 44.203125 -81.921875 L 22.6875 -81.921875 L 22.6875 -10.890625 L 43.03125 -10.890625 C 49.082031 -10.890625 54.160156 -11.601562 58.265625 -13.03125 C 62.367188 -14.457031 66.082031 -17.847656 69.40625 -23.203125 C 72.738281 -28.554688 74.40625 -36.550781 74.40625 -47.1875 Z M 74.40625 -47.1875 "/></g></g></g><g fill="#ffffff" fill-opacity="1"><g transform="translate(483.297024, 102.504129)"><g><path d="M 77.390625 -81.921875 L 22.5625 -81.921875 L 22.5625 -53.40625 L 73.890625 -53.40625 L 73.890625 -42.515625 L 22.5625 -42.515625 L 22.5625 -10.890625 L 79.453125 -10.890625 L 79.453125 0 L 10.234375 0 L 10.234375 -92.8125 L 77.390625 -92.8125 Z M 77.390625 -81.921875 "/></g></g></g><g fill="#ffffff" fill-opacity="1"><g transform="translate(569.75434, 102.504129)"><g><path d="M 42 -94.359375 C 52.539062 -94.359375 60.878906 -91.894531 67.015625 -86.96875 C 73.148438 -82.050781 76.4375 -75.269531 76.875 -66.625 L 65.078125 -65.84375 C 64.378906 -71.8125 62.210938 -76.21875 58.578125 -79.0625 C 54.953125 -81.914062 49.597656 -83.34375 42.515625 -83.34375 C 35.773438 -83.34375 30.546875 -82.109375 26.828125 -79.640625 C 23.117188 -77.179688 21.265625 -73.835938 21.265625 -69.609375 C 21.265625 -66.835938 22.082031 -64.476562 23.71875 -62.53125 C 25.363281 -60.59375 27.695312 -59.191406 30.71875 -58.328125 C 31.414062 -58.160156 33.96875 -57.40625 38.375 -56.0625 C 42.78125 -54.71875 48.394531 -53.3125 55.21875 -51.84375 C 63.34375 -50.03125 69.4375 -46.789062 73.5 -42.125 C 77.5625 -37.457031 79.59375 -32.144531 79.59375 -26.1875 C 79.59375 -21.175781 78.226562 -16.550781 75.5 -12.3125 C 72.78125 -8.082031 68.828125 -4.710938 63.640625 -2.203125 C 58.460938 0.304688 52.328125 1.5625 45.234375 1.5625 C 37.109375 1.5625 30.109375 0.265625 24.234375 -2.328125 C 18.359375 -4.921875 13.863281 -8.570312 10.75 -13.28125 C 7.644531 -17.988281 6.003906 -23.5 5.828125 -29.8125 L 17.5 -30.84375 C 18.019531 -23.5 20.914062 -18.097656 26.1875 -14.640625 C 31.457031 -11.191406 37.675781 -9.46875 44.84375 -9.46875 C 52.019531 -9.46875 57.660156 -10.9375 61.765625 -13.875 C 65.867188 -16.8125 67.921875 -20.785156 67.921875 -25.796875 C 67.921875 -32.617188 62.4375 -37.367188 51.46875 -40.046875 L 44.203125 -41.875 C 39.710938 -42.90625 34.523438 -44.285156 28.640625 -46.015625 C 22.679688 -47.742188 18.015625 -50.660156 14.640625 -54.765625 C 11.273438 -58.867188 9.59375 -63.554688 9.59375 -68.828125 C 9.59375 -73.671875 10.890625 -78.035156 13.484375 -81.921875 C 16.078125 -85.804688 19.8125 -88.847656 24.6875 -91.046875 C 29.570312 -93.253906 35.34375 -94.359375 42 -94.359375 Z M 42 -94.359375 "/></g></g></g><g fill="#578ef8" fill-opacity="1"><g transform="translate(656.214819, 102.504129)"><g><path d="M 72.984375 -81.921875 L 22.6875 -81.921875 L 22.6875 -53.140625 L 66.234375 -53.140625 L 66.234375 -42.25 L 22.6875 -42.25 L 22.6875 0 L 10.375 0 L 10.375 -92.8125 L 72.984375 -92.8125 Z M 72.984375 -81.921875 "/></g></g></g><g fill="#578ef8" fill-opacity="1"><g transform="translate(735.41333, 102.504129)"><g><path d="M 86.71875 0 L 72.71875 0 L 61.828125 -28.265625 L 23.078125 -28.265625 L 12.96875 0 L -0.125 0 L 35.515625 -92.8125 L 48.734375 -92.8125 Z M 36.8125 -65.328125 L 26.703125 -38.109375 L 58.078125 -38.109375 L 46.671875 -68.703125 C 45.285156 -72.328125 43.6875 -77.125 41.875 -83.09375 C 41.875 -82.65625 41.351562 -80.46875 40.3125 -76.53125 C 39.28125 -72.601562 38.113281 -68.867188 36.8125 -65.328125 Z M 36.8125 -65.328125 "/></g></g></g><g fill="#578ef8" fill-opacity="1"><g transform="translate(821.870635, 102.504129)"><g><path d="M 75.4375 -87.234375 C 78.632812 -84.734375 80.96875 -81.734375 82.4375 -78.234375 C 83.90625 -74.734375 84.640625 -71.125 84.640625 -67.40625 C 84.640625 -60.664062 82.476562 -55.113281 78.15625 -50.75 C 73.84375 -46.382812 67.273438 -43.550781 58.453125 -42.25 C 61.828125 -40.695312 64.851562 -38.601562 67.53125 -35.96875 C 70.207031 -33.332031 73.0625 -29.679688 76.09375 -25.015625 L 92.15625 0 L 76.734375 0 L 64.8125 -18.671875 C 60.664062 -25.148438 57.359375 -29.878906 54.890625 -32.859375 C 52.429688 -35.835938 49.90625 -37.953125 47.3125 -39.203125 C 44.71875 -40.460938 41.4375 -41.09375 37.46875 -41.09375 L 22.6875 -41.09375 L 22.6875 0 L 10.375 0 L 10.375 -92.8125 L 53.015625 -92.8125 C 58.460938 -92.8125 62.890625 -92.398438 66.296875 -91.578125 C 69.710938 -90.753906 72.757812 -89.304688 75.4375 -87.234375 Z M 66.5 -56 C 68.394531 -57.46875 69.773438 -59.21875 70.640625 -61.25 C 71.503906 -63.28125 71.9375 -65.332031 71.9375 -67.40625 C 71.9375 -72.851562 69.992188 -76.742188 66.109375 -79.078125 C 62.222656 -81.410156 57.6875 -82.578125 52.5 -82.578125 L 22.6875 -82.578125 L 22.6875 -51.984375 L 50.421875 -51.984375 C 54.742188 -51.984375 58.050781 -52.304688 60.34375 -52.953125 C 62.632812 -53.597656 64.6875 -54.613281 66.5 -56 Z M 66.5 -56 "/></g></g></g><g fill="#578ef8" fill-opacity="1"><g transform="translate(915.457082, 102.504129)"><g><path d="M 51.078125 -24.765625 C 51.679688 -23.035156 52.890625 -19.226562 54.703125 -13.34375 C 55.648438 -16.375 57.207031 -21.085938 59.375 -27.484375 L 81.921875 -92.8125 L 98.390625 -92.8125 L 98.390625 0 L 86.59375 0 L 86.59375 -77.640625 L 59.625 0 L 48.484375 0 L 21.640625 -78.9375 L 21.640625 0 L 9.84375 0 L 9.84375 -92.8125 L 28.390625 -92.8125 Z M 51.078125 -24.765625 "/></g></g></g><g fill="#578ef8" fill-opacity="1"><g transform="translate(1023.431487, 102.504129)"><g><path d="M 86.71875 0 L 72.71875 0 L 61.828125 -28.265625 L 23.078125 -28.265625 L 12.96875 0 L -0.125 0 L 35.515625 -92.8125 L 48.734375 -92.8125 Z M 36.8125 -65.328125 L 26.703125 -38.109375 L 58.078125 -38.109375 L 46.671875 -68.703125 C 45.285156 -72.328125 43.6875 -77.125 41.875 -83.09375 C 41.875 -82.65625 41.351562 -80.46875 40.3125 -76.53125 C 39.28125 -72.601562 38.113281 -68.867188 36.8125 -65.328125 Z M 36.8125 -65.328125 "/></g></g></g></svg>