<svg xmlns="http://www.w3.org/2000/svg" xmlns:xlink="http://www.w3.org/1999/xlink" width="1500" zoomAndPan="magnify" viewBox="0 0 1125 149.999998" height="200" preserveAspectRatio="xMidYMid meet" version="1.0"><defs><g/></defs><g fill="#ffffff" fill-opacity="1"><g transform="translate(52.382786, 109.26563)"><g><path d="M 44.5625 -82.328125 C 52.90625 -82.328125 58.929688 -80.28125 62.640625 -76.1875 C 66.359375 -72.101562 68.21875 -66.722656 68.21875 -60.046875 C 68.21875 -55.835938 67.367188 -52.039062 65.671875 -48.65625 C 63.984375 -45.269531 61.320312 -42.585938 57.6875 -40.609375 C 54.0625 -38.628906 49.273438 -37.640625 43.328125 -37.640625 L 14.484375 -37.640625 L 14.484375 0 L 9.28125 0 L 9.28125 -82.328125 Z M 43.078125 -42.09375 C 49.929688 -42.09375 54.90625 -43.679688 58 -46.859375 C 61.09375 -50.035156 62.640625 -54.429688 62.640625 -60.046875 C 62.640625 -66.316406 61.132812 -70.851562 58.125 -73.65625 C 55.113281 -76.46875 50.507812 -77.875 44.3125 -77.875 L 14.484375 -77.875 L 14.484375 -42.09375 Z M 43.078125 -42.09375 "/></g></g></g><g fill="#ffffff" fill-opacity="1"><g transform="translate(126.165691, 109.26563)"><g><path d="M 14.484375 -4.453125 L 67.96875 -4.453125 L 67.96875 0 L 9.28125 0 L 9.28125 -82.328125 L 67.59375 -82.328125 L 67.59375 -77.875 L 14.484375 -77.875 L 14.484375 -45.0625 L 63.875 -45.0625 L 63.875 -40.609375 L 14.484375 -40.609375 Z M 14.484375 -4.453125 "/></g></g></g><g fill="#ffffff" fill-opacity="1"><g transform="translate(202.548328, 109.26563)"><g><path d="M 44.5625 -82.328125 C 52.90625 -82.328125 58.929688 -80.28125 62.640625 -76.1875 C 66.359375 -72.101562 68.21875 -66.722656 68.21875 -60.046875 C 68.21875 -55.835938 67.367188 -52.039062 65.671875 -48.65625 C 63.984375 -45.269531 61.320312 -42.585938 57.6875 -40.609375 C 54.0625 -38.628906 49.273438 -37.640625 43.328125 -37.640625 L 14.484375 -37.640625 L 14.484375 0 L 9.28125 0 L 9.28125 -82.328125 Z M 43.078125 -42.09375 C 49.929688 -42.09375 54.90625 -43.679688 58 -46.859375 C 61.09375 -50.035156 62.640625 -54.429688 62.640625 -60.046875 C 62.640625 -66.316406 61.132812 -70.851562 58.125 -73.65625 C 55.113281 -76.46875 50.507812 -77.875 44.3125 -77.875 L 14.484375 -77.875 L 14.484375 -42.09375 Z M 43.078125 -42.09375 "/></g></g></g><g fill="#ffffff" fill-opacity="1"><g transform="translate(276.331244, 109.26563)"><g><path d="M 72.046875 -82.328125 L 72.046875 -77.875 L 40.609375 -77.875 L 40.609375 0.25 L 35.40625 0.25 L 35.40625 -77.875 L 3.71875 -77.875 L 3.71875 -82.328125 Z M 72.046875 -82.328125 "/></g></g></g><g fill="#ffffff" fill-opacity="1"><g transform="translate(352.094881, 109.26563)"><g><path d="M 51.25 -77.875 L 32.5625 -77.875 L 32.5625 -4.453125 L 51.25 -4.453125 L 51.25 0 L 8.671875 0 L 8.671875 -4.453125 L 27.359375 -4.453125 L 27.359375 -77.875 L 8.671875 -77.875 L 8.671875 -82.328125 L 51.25 -82.328125 Z M 51.25 -77.875 "/></g></g></g><g fill="#ffffff" fill-opacity="1"><g transform="translate(412.012526, 109.26563)"><g><path d="M 40.234375 -82.328125 C 49.316406 -82.328125 56.617188 -80.488281 62.140625 -76.8125 C 67.671875 -73.144531 71.691406 -68.210938 74.203125 -62.015625 C 76.722656 -55.828125 77.984375 -48.9375 77.984375 -41.34375 C 77.984375 -33.664062 76.722656 -26.691406 74.203125 -20.421875 C 71.691406 -14.148438 67.671875 -9.175781 62.140625 -5.5 C 56.617188 -1.832031 49.316406 0 40.234375 0 L 9.28125 0 L 9.28125 -82.328125 Z M 39.859375 -4.453125 C 48.191406 -4.453125 54.710938 -6.019531 59.421875 -9.15625 C 64.128906 -12.289062 67.472656 -16.625 69.453125 -22.15625 C 71.429688 -27.6875 72.421875 -34.082031 72.421875 -41.34375 C 72.421875 -48.613281 71.453125 -54.96875 69.515625 -60.40625 C 67.578125 -65.851562 64.234375 -70.125 59.484375 -73.21875 C 54.734375 -76.320312 48.191406 -77.875 39.859375 -77.875 L 14.484375 -77.875 L 14.484375 -4.453125 Z M 39.859375 -4.453125 "/></g></g></g><g fill="#ffffff" fill-opacity="1"><g transform="translate(497.43232, 109.26563)"><g><path d="M 14.484375 -4.453125 L 67.96875 -4.453125 L 67.96875 0 L 9.28125 0 L 9.28125 -82.328125 L 67.59375 -82.328125 L 67.59375 -77.875 L 14.484375 -77.875 L 14.484375 -45.0625 L 63.875 -45.0625 L 63.875 -40.609375 L 14.484375 -40.609375 Z M 14.484375 -4.453125 "/></g></g></g><g fill="#ffffff" fill-opacity="1"><g transform="translate(573.814991, 109.26563)"><g><path d="M 7.421875 -29.46875 L 12.625 -29.46875 C 12.625 -26.164062 13.035156 -22.925781 13.859375 -19.75 C 14.691406 -16.570312 16.203125 -13.703125 18.390625 -11.140625 C 20.578125 -8.578125 23.628906 -6.53125 27.546875 -5 C 31.460938 -3.476562 36.515625 -2.71875 42.703125 -2.71875 C 51.617188 -2.71875 58.078125 -4.203125 62.078125 -7.171875 C 66.085938 -10.148438 68.09375 -14.566406 68.09375 -20.421875 C 68.09375 -25.785156 66.8125 -29.804688 64.25 -32.484375 C 61.6875 -35.171875 57.226562 -37.050781 50.875 -38.125 L 30.703125 -41.59375 C 23.273438 -42.914062 18.09375 -45.25 15.15625 -48.59375 C 12.226562 -51.9375 10.765625 -56.375 10.765625 -61.90625 C 10.765625 -66.03125 11.835938 -69.800781 13.984375 -73.21875 C 16.128906 -76.644531 19.367188 -79.390625 23.703125 -81.453125 C 28.035156 -83.515625 33.546875 -84.546875 40.234375 -84.546875 C 49.472656 -84.546875 56.960938 -82.234375 62.703125 -77.609375 C 68.441406 -72.992188 71.597656 -66.1875 72.171875 -57.1875 L 66.96875 -57.1875 C 66.5625 -64.039062 64.3125 -69.570312 60.21875 -73.78125 C 56.132812 -77.988281 49.472656 -80.09375 40.234375 -80.09375 C 31.734375 -80.09375 25.601562 -78.421875 21.84375 -75.078125 C 18.09375 -71.734375 16.21875 -67.34375 16.21875 -61.90625 C 16.21875 -59.59375 16.585938 -57.382812 17.328125 -55.28125 C 18.078125 -53.175781 19.539062 -51.359375 21.71875 -49.828125 C 23.90625 -48.296875 27.109375 -47.160156 31.328125 -46.421875 L 52.609375 -42.828125 C 60.203125 -41.515625 65.585938 -39.207031 68.765625 -35.90625 C 71.941406 -32.601562 73.53125 -27.773438 73.53125 -21.421875 C 73.53125 -13.992188 71.132812 -8.273438 66.34375 -4.265625 C 61.5625 -0.265625 53.679688 1.734375 42.703125 1.734375 C 34.046875 1.734375 27.132812 0.375 21.96875 -2.34375 C 16.8125 -5.070312 13.097656 -8.804688 10.828125 -13.546875 C 8.554688 -18.296875 7.421875 -23.601562 7.421875 -29.46875 Z M 7.421875 -29.46875 "/></g></g></g><g fill="#2a6bff" fill-opacity="1"><g transform="translate(654.785094, 109.26563)"><g><path d="M 67.21875 -77.875 L 14.484375 -77.875 L 14.484375 -44.8125 L 63.515625 -44.8125 L 63.515625 -40.359375 L 14.484375 -40.359375 L 14.484375 0 L 9.28125 0 L 9.28125 -82.328125 L 67.21875 -82.328125 Z M 67.21875 -77.875 "/></g></g></g><g fill="#2a6bff" fill-opacity="1"><g transform="translate(729.434569, 109.26563)"><g><path d="M 71.921875 0 L 62.390625 -24.015625 L 19.8125 -24.015625 L 10.28125 0 L 4.953125 0 L 37.515625 -82.328125 L 44.8125 -82.328125 L 77.375 0 Z M 21.546875 -28.46875 L 60.65625 -28.46875 L 41.09375 -77.984375 Z M 21.546875 -28.46875 "/></g></g></g><g fill="#2a6bff" fill-opacity="1"><g transform="translate(811.759447, 109.26563)"><g><path d="M 66.109375 -22.78125 L 66.109375 -12.25 C 66.109375 -9.945312 66.191406 -7.90625 66.359375 -6.125 C 66.523438 -4.351562 66.851562 -2.3125 67.34375 0 L 62.140625 0 C 61.648438 -1.976562 61.320312 -3.957031 61.15625 -5.9375 C 60.988281 -7.914062 60.90625 -10.019531 60.90625 -12.25 L 60.90625 -22.03125 C 60.90625 -27.894531 59.421875 -32.25 56.453125 -35.09375 C 53.484375 -37.945312 48.820312 -39.375 42.46875 -39.375 L 14.484375 -39.375 L 14.484375 0 L 9.28125 0 L 9.28125 -82.328125 L 45.4375 -82.328125 C 53.769531 -82.328125 59.726562 -80.46875 63.3125 -76.75 C 66.90625 -73.039062 68.703125 -68.050781 68.703125 -61.78125 C 68.703125 -56.5 67.21875 -52 64.25 -48.28125 C 61.28125 -44.5625 57.484375 -42.289062 52.859375 -41.46875 C 55.171875 -41.0625 57.316406 -40.238281 59.296875 -39 C 61.273438 -37.757812 62.90625 -35.859375 64.1875 -33.296875 C 65.46875 -30.742188 66.109375 -27.238281 66.109375 -22.78125 Z M 14.484375 -43.703125 L 43.578125 -43.703125 C 50.429688 -43.703125 55.40625 -45.269531 58.5 -48.40625 C 61.59375 -51.539062 63.140625 -55.75 63.140625 -61.03125 C 63.140625 -67.21875 61.628906 -71.570312 58.609375 -74.09375 C 55.597656 -76.613281 51 -77.875 44.8125 -77.875 L 14.484375 -77.875 Z M 14.484375 -43.703125 "/></g></g></g><g fill="#2a6bff" fill-opacity="1"><g transform="translate(889.503861, 109.26563)"><g><path d="M 93.46875 -82.328125 L 93.46875 0 L 88.265625 0 L 88.265625 -78.734375 L 55.34375 0 L 47.421875 0 L 14.484375 -78.734375 L 14.484375 0 L 9.28125 0 L 9.28125 -82.328125 L 18.8125 -82.328125 L 51.5 -4.078125 L 84.1875 -82.328125 Z M 93.46875 -82.328125 "/></g></g></g><g fill="#2a6bff" fill-opacity="1"><g transform="translate(992.255206, 109.26563)"><g><path d="M 71.921875 0 L 62.390625 -24.015625 L 19.8125 -24.015625 L 10.28125 0 L 4.953125 0 L 37.515625 -82.328125 L 44.8125 -82.328125 L 77.375 0 Z M 21.546875 -28.46875 L 60.65625 -28.46875 L 41.09375 -77.984375 Z M 21.546875 -28.46875 "/></g></g></g></svg>