<svg width="24" height="24" viewBox="0 0 24 24" fill="none" xmlns="http://www.w3.org/2000/svg">
<path d="M20.317 4.3698C18.7873 3.66494 17.147 3.13812 15.4319 2.8208C15.4007 2.8152 15.3695 2.8296 15.3534 2.8584C15.1424 3.2328 14.9087 3.7172 14.7451 4.1012C12.9004 3.8044 11.0652 3.8044 9.25832 4.1012C9.09465 3.7084 8.85248 3.2328 8.64057 2.8584C8.62449 2.8308 8.59328 2.8164 8.56205 2.8208C6.84791 3.138 5.20756 3.6648 3.67693 4.3698C3.66368 4.3754 3.65233 4.3854 3.64479 4.3986C0.533392 9.0462 -0.31895 13.5804 0.0991801 18.0636C0.101072 18.0858 0.11337 18.107 0.130398 18.1202C2.18321 19.6146 4.17171 20.524 6.12328 21.1258C6.15451 21.1358 6.18761 21.1246 6.20748 21.0982C6.66913 20.4716 7.08064 19.8102 7.43348 19.1142C7.4543 19.0732 7.43442 19.0244 7.39186 19.0088C6.73913 18.7588 6.1176 18.4552 5.51973 18.1114C5.47244 18.084 5.46865 18.017 5.51216 17.9852C5.63797 17.8912 5.76382 17.7936 5.88396 17.695C5.90569 17.677 5.93598 17.6726 5.96153 17.6838C9.88928 19.4774 14.1415 19.4774 18.023 17.6838C18.0485 17.6714 18.0788 17.6758 18.1015 17.6938C18.2216 17.7924 18.3475 17.8912 18.4742 17.9852C18.5177 18.017 18.5149 18.084 18.4676 18.1114C17.8697 18.462 17.2482 18.7588 16.5945 19.0076C16.552 19.0232 16.533 19.0732 16.5539 19.1142C16.9143 19.809 17.3258 20.4704 17.7789 21.097C17.7978 21.1246 17.8318 21.1358 17.8631 21.1258C19.8241 20.524 21.8126 19.6146 23.8654 18.1202C23.8834 18.107 23.8948 18.087 23.8967 18.0648C24.3971 12.8904 23.0585 8.3934 20.3482 4.3998C20.3416 4.3854 20.3303 4.3754 20.317 4.3698ZM8.02002 15.3312C6.8375 15.3312 5.86313 14.2506 5.86313 12.9264C5.86313 11.6022 6.8186 10.5216 8.02002 10.5216C9.23087 10.5216 10.1958 11.6112 10.1769 12.9264C10.1769 14.2506 9.22141 15.3312 8.02002 15.3312ZM15.9947 15.3312C14.8123 15.3312 13.8379 14.2506 13.8379 12.9264C13.8379 11.6022 14.7933 10.5216 15.9947 10.5216C17.2056 10.5216 18.1705 11.6112 18.1516 12.9264C18.1516 14.2506 17.2056 15.3312 15.9947 15.3312Z" fill="white"/>
</svg>
