<svg width="16" height="16" viewBox="0 0 16 16" fill="none" xmlns="http://www.w3.org/2000/svg">
<path d="M12.4725 2.33015C11.211 1.70247 9.66727 1.33325 8 1.33325C6.33273 1.33325 4.789 1.70247 3.52744 2.33015C2.90879 2.63796 2.59946 2.79187 2.29973 3.27577C2 3.75969 2 4.22824 2 5.16534V7.49132C2 11.2803 5.02824 13.3869 6.782 14.2891C7.27113 14.5408 7.51567 14.6666 8 14.6666C8.48433 14.6666 8.72887 14.5408 9.21793 14.2891C10.9717 13.3869 14 11.2803 14 7.49132V5.16534C14 4.22825 14 3.75969 13.7003 3.27577C13.4005 2.79186 13.0912 2.63796 12.4725 2.33015Z" stroke="white" stroke-linecap="round" stroke-linejoin="round"/>
<path d="M6 7.66659C6 7.66659 6.9386 7.83452 7.33333 8.99992C7.33333 8.99992 8.33333 6.99992 10 6.33325" stroke="white" stroke-linecap="round" stroke-linejoin="round"/>
</svg>
