<svg width="16" height="16" viewBox="0 0 16 16" fill="none" xmlns="http://www.w3.org/2000/svg">
<path d="M11.3333 13.3334C12.0697 13.3334 12.6667 12.7365 12.6667 12.0001C12.6667 11.2637 12.0697 10.6667 11.3333 10.6667C10.597 10.6667 10 11.2637 10 12.0001C10 12.7365 10.597 13.3334 11.3333 13.3334Z" stroke="white"/>
<path d="M4.66634 13.3334C5.40272 13.3334 5.99967 12.7365 5.99967 12.0001C5.99967 11.2637 5.40272 10.6667 4.66634 10.6667C3.92996 10.6667 3.33301 11.2637 3.33301 12.0001C3.33301 12.7365 3.92996 13.3334 4.66634 13.3334Z" stroke="white"/>
<path d="M3.33301 11.9817C2.60186 11.9453 2.14574 11.8365 1.82116 11.5119C1.49658 11.1873 1.38782 10.7312 1.35137 10.0001M5.99967 12.0001H9.99967M12.6663 11.9817C13.3975 11.9453 13.8536 11.8365 14.1782 11.5119C14.6663 11.0237 14.6663 10.2381 14.6663 8.66675V7.33341H11.533C11.0367 7.33341 10.7885 7.33341 10.5877 7.26815C10.1817 7.13628 9.86347 6.81801 9.73161 6.4121C9.66634 6.21126 9.66634 5.96309 9.66634 5.46675C9.66634 4.72223 9.66634 4.34998 9.56847 4.04871C9.37061 3.43984 8.89327 2.96247 8.28441 2.76463C7.98314 2.66675 7.61087 2.66675 6.86634 2.66675H1.33301" stroke="white" stroke-linecap="round" stroke-linejoin="round"/>
<path d="M1.33301 5.33325H5.33301" stroke="white" stroke-linecap="round" stroke-linejoin="round"/>
<path d="M1.33301 7.33325H3.99967" stroke="white" stroke-linecap="round" stroke-linejoin="round"/>
<path d="M9.66699 4H10.8811C11.8514 4 12.3365 4 12.7313 4.23581C13.1261 4.47161 13.3561 4.89874 13.8161 5.753L14.667 7.33333" stroke="white" stroke-linecap="round" stroke-linejoin="round"/>
</svg>
